<?xml version="1.0" encoding="UTF-8" standalone="no"?>
<svg
   xmlns:dc="http://purl.org/dc/elements/1.1/"
   xmlns:cc="http://creativecommons.org/ns#"
   xmlns:rdf="http://www.w3.org/1999/02/22-rdf-syntax-ns#"
   xmlns:svg="http://www.w3.org/2000/svg"
   xmlns="http://www.w3.org/2000/svg"
   xmlns:sodipodi="http://sodipodi.sourceforge.net/DTD/sodipodi-0.dtd"
   xmlns:inkscape="http://www.inkscape.org/namespaces/inkscape"
   version="1.0"
   width="480.00003pt"
   height="480.06229pt"
   viewBox="0 0 480.00003 480.06229"
   preserveAspectRatio="xMidYMid meet"
   id="svg3546"
   inkscape:version="0.92.2 5c3e80d, 2017-08-06"
   sodipodi:docname="unimol2.svg">
  <sodipodi:namedview
     pagecolor="#ffffff"
     bordercolor="#666666"
     borderopacity="1"
     objecttolerance="10"
     gridtolerance="10"
     guidetolerance="10"
     inkscape:pageopacity="0"
     inkscape:pageshadow="2"
     inkscape:window-width="1680"
     inkscape:window-height="942"
     id="namedview3714"
     showgrid="false"
     inkscape:zoom="0.60234375"
     inkscape:cx="734.39864"
     inkscape:cy="682.92164"
     inkscape:window-x="0"
     inkscape:window-y="1"
     inkscape:window-maximized="1"
     inkscape:current-layer="svg3546" />
  <defs
     id="defs3716" />
  <metadata
     id="metadata3548">
Created by potrace 1.14, written by Peter Selinger 2001-2017
<rdf:RDF>
  <cc:Work
     rdf:about="">
    <dc:format>image/svg+xml</dc:format>
    <dc:type
       rdf:resource="http://purl.org/dc/dcmitype/StillImage" />
    <dc:title></dc:title>
  </cc:Work>
</rdf:RDF>
</metadata>
  <g
     id="g3550"
     transform="matrix(0.04692541,0,0,-0.04692541,-0.28155246,480.34383)"
     style="fill:#488aff;stroke:none">
    <path
       id="path3552"
       d="m 4850,10234 c -25,-2 -103,-9 -174,-14 -145,-12 -420,-51 -565,-80 -202,-41 -543,-135 -696,-192 -457,-170 -744,-313 -1115,-556 -80,-53 -147,-98 -150,-102 -3,-3 -27,-22 -53,-41 -140,-99 -205,-152 -361,-290 -166,-147 -308,-289 -455,-455 -138,-156 -191,-221 -290,-361 -19,-26 -38,-50 -41,-53 -9,-7 -186,-277 -232,-355 C 512,7389 328,6970 216,6595 122,6277 55,5928 18,5563 2,5399 2,4836 18,4675 90,3975 247,3423 547,2820 c 103,-206 154,-296 301,-520 52,-80 98,-147 102,-150 3,-3 22,-27 41,-53 99,-140 152,-205 290,-361 147,-166 289,-308 455,-455 156,-138 221,-191 361,-290 26,-19 50,-38 53,-41 7,-9 282,-189 355,-233 326,-193 751,-383 1080,-482 129,-39 413,-112 526,-135 124,-24 409,-66 564,-82 161,-16 725,-16 888,0 523,53 1001,166 1443,342 480,191 907,440 1334,779 25,20 104,87 175,151 410,363 745,771 1035,1260 62,104 271,522 285,570 4,14 16,43 26,65 94,203 238,690 293,995 60,327 81,569 81,940 0,371 -21,613 -81,940 -55,305 -199,792 -293,995 -10,22 -22,51 -26,65 -14,47 -223,465 -285,570 -290,489 -625,897 -1035,1260 -244,216 -514,414 -780,572 -129,77 -177,103 -360,193 -562,276 -1138,438 -1795,505 -106,11 -647,21 -730,14 z m 640,-69 c 286,-21 424,-36 431,-46 3,-5 27,-11 55,-15 27,-3 69,-9 94,-14 25,-5 98,-19 163,-31 64,-12 117,-26 117,-30 0,-5 10,-9 22,-9 12,0 35,-4 52,-9 93,-28 145,-41 165,-41 12,0 24,-7 27,-15 4,-8 17,-15 30,-15 13,0 33,-4 46,-9 13,-5 56,-19 96,-31 39,-13 72,-26 72,-31 0,-5 10,-9 23,-9 13,0 26,-3 30,-6 3,-4 39,-18 79,-31 40,-13 75,-28 78,-33 3,-4 25,-14 50,-23 95,-32 153,-58 163,-74 4,-7 14,-13 22,-13 22,0 129,-52 138,-67 4,-7 13,-13 19,-13 15,0 122,-53 126,-62 2,-4 34,-22 70,-40 37,-17 72,-37 77,-44 6,-6 37,-26 70,-44 33,-18 63,-37 66,-42 6,-9 24,-20 91,-55 14,-7 28,-19 31,-26 3,-7 26,-24 52,-37 25,-13 51,-32 56,-42 5,-10 16,-18 23,-18 8,0 31,-17 53,-37 21,-21 51,-44 66,-52 15,-8 43,-30 62,-48 19,-18 49,-43 67,-56 91,-63 533,-507 635,-637 15,-19 33,-39 39,-45 18,-17 74,-92 74,-100 0,-4 11,-16 24,-26 13,-10 31,-34 40,-54 9,-19 21,-35 26,-35 5,0 24,-25 42,-55 18,-30 36,-55 40,-55 3,0 14,-13 22,-30 9,-16 23,-43 32,-60 8,-16 19,-30 23,-30 4,0 20,-25 35,-55 16,-30 36,-63 45,-72 9,-10 32,-47 50,-83 19,-36 38,-67 42,-70 4,-3 23,-37 41,-75 17,-39 40,-79 50,-89 10,-11 18,-25 18,-32 0,-17 41,-106 56,-121 7,-7 16,-23 19,-36 10,-36 59,-152 66,-157 3,-3 22,-50 40,-105 19,-55 37,-101 41,-103 4,-2 17,-36 28,-75 12,-40 26,-82 31,-95 5,-13 9,-31 9,-42 0,-10 4,-20 9,-22 6,-1 19,-41 31,-88 11,-47 25,-99 30,-116 6,-17 10,-40 10,-51 0,-12 4,-23 9,-25 12,-4 40,-142 76,-370 3,-21 9,-38 14,-38 8,0 22,-124 46,-400 18,-211 18,-648 0,-860 -22,-262 -37,-390 -46,-390 -4,0 -11,-21 -14,-47 -23,-168 -64,-367 -75,-371 -6,-2 -10,-12 -10,-22 0,-33 -61,-255 -70,-258 -6,-2 -10,-12 -10,-22 0,-11 -4,-29 -9,-42 -5,-13 -19,-55 -31,-95 -11,-39 -24,-73 -28,-75 -4,-2 -23,-49 -41,-105 -19,-57 -38,-103 -42,-103 -4,0 -9,-8 -12,-17 -4,-10 -13,-36 -22,-58 -9,-22 -21,-54 -26,-72 -5,-18 -16,-38 -23,-46 -15,-15 -56,-104 -56,-121 0,-7 -8,-21 -18,-32 -10,-10 -33,-50 -50,-89 -18,-38 -37,-72 -41,-75 -4,-3 -23,-34 -42,-70 -18,-36 -41,-73 -50,-83 -9,-9 -29,-42 -45,-72 -15,-30 -31,-55 -35,-55 -4,0 -14,-12 -22,-28 -33,-63 -43,-79 -65,-102 -13,-14 -30,-40 -39,-58 -9,-18 -24,-37 -34,-43 -11,-5 -19,-16 -19,-24 0,-7 -16,-30 -35,-51 -19,-20 -35,-39 -35,-41 0,-6 -59,-84 -74,-98 -6,-5 -24,-26 -39,-45 -96,-123 -550,-580 -627,-631 -14,-10 -45,-35 -69,-57 -24,-22 -56,-46 -70,-54 -14,-7 -43,-30 -64,-51 -22,-20 -45,-37 -53,-37 -7,0 -18,-8 -23,-18 -5,-10 -31,-29 -56,-42 -26,-13 -49,-30 -52,-37 -3,-7 -18,-19 -34,-28 -16,-8 -44,-23 -61,-32 -18,-9 -37,-22 -43,-29 -5,-7 -32,-25 -60,-39 -27,-15 -54,-33 -60,-39 -5,-7 -40,-27 -77,-44 -36,-18 -68,-36 -70,-40 -4,-9 -111,-62 -126,-62 -6,0 -15,-6 -19,-14 -8,-15 -116,-66 -139,-66 -7,0 -17,-6 -21,-13 -10,-16 -68,-42 -163,-74 -25,-9 -47,-19 -50,-23 -3,-5 -38,-20 -78,-33 -40,-13 -76,-27 -79,-31 -4,-3 -17,-6 -30,-6 -13,0 -23,-4 -23,-9 0,-5 -33,-18 -72,-31 -40,-12 -83,-26 -96,-31 -13,-5 -33,-9 -46,-9 -13,0 -26,-7 -30,-15 -3,-8 -15,-15 -27,-15 -20,0 -72,-13 -165,-41 -17,-5 -40,-9 -52,-9 -12,0 -22,-4 -22,-9 0,-4 -53,-18 -117,-30 -65,-12 -138,-26 -163,-31 -25,-5 -67,-11 -94,-14 -28,-4 -52,-10 -55,-15 -13,-20 -549,-60 -801,-60 -241,0 -778,40 -790,59 -3,5 -27,11 -55,15 -157,22 -368,64 -375,75 -3,4 -21,10 -40,13 -71,11 -235,57 -238,67 -2,5 -11,10 -20,10 -29,0 -217,60 -220,70 -2,6 -14,10 -26,10 -12,0 -26,4 -31,8 -6,5 -41,19 -80,32 -38,12 -72,25 -75,29 -7,9 -44,25 -124,56 -38,15 -76,33 -83,41 -8,8 -20,14 -28,14 -7,0 -26,7 -42,15 -15,8 -43,20 -60,27 -18,7 -33,16 -33,19 0,3 -30,21 -67,39 -38,18 -70,37 -73,41 -7,10 -125,69 -138,69 -6,0 -12,6 -15,14 -3,7 -27,24 -53,36 -26,13 -55,31 -64,39 -15,15 -117,81 -125,81 -2,0 -19,14 -37,30 -18,17 -38,30 -45,30 -6,0 -18,8 -25,19 -7,10 -37,33 -65,50 -29,18 -53,36 -53,40 0,4 -24,23 -52,41 -29,19 -65,46 -79,60 -14,14 -48,43 -75,65 -27,22 -67,59 -89,83 -23,23 -44,42 -49,42 -10,0 -296,286 -296,296 0,5 -19,26 -42,49 -24,22 -61,62 -83,89 -22,27 -51,61 -65,75 -14,14 -39,46 -55,71 -17,25 -45,60 -63,79 -17,19 -32,40 -32,47 0,7 -16,27 -35,45 -19,19 -35,39 -35,45 0,6 -11,23 -25,38 -14,15 -25,29 -25,31 0,8 -66,111 -82,127 -10,10 -24,33 -32,52 -8,19 -23,43 -33,53 -10,10 -33,49 -51,86 -18,37 -37,67 -42,67 -6,0 -10,5 -10,11 0,16 -61,139 -69,139 -3,0 -12,15 -19,32 -7,18 -19,46 -27,61 -8,16 -15,35 -15,42 0,8 -6,18 -14,22 -7,4 -19,26 -26,48 -7,22 -16,45 -20,50 -3,6 -15,33 -25,60 -10,28 -21,52 -25,55 -4,3 -18,37 -30,75 -13,39 -27,74 -32,79 -4,6 -8,20 -8,32 0,12 -4,24 -10,26 -5,1 -24,53 -42,113 -18,61 -35,112 -39,115 -9,7 -54,174 -66,248 -3,17 -9,32 -13,32 -4,0 -17,53 -29,118 -12,64 -26,137 -31,162 -5,25 -12,70 -15,100 -3,30 -10,57 -15,60 -20,12 -59,545 -59,795 0,254 40,783 60,796 5,3 11,27 15,55 3,27 9,69 14,94 5,25 19,98 31,163 12,64 25,117 29,117 4,0 10,15 13,33 12,73 57,240 66,247 4,3 21,55 39,115 18,61 37,112 42,113 6,2 10,12 10,23 0,11 4,27 9,37 5,9 20,46 32,82 13,36 26,67 29,70 4,3 16,30 27,60 41,109 57,145 70,153 7,4 13,14 13,22 0,7 7,26 15,42 8,15 20,43 27,61 7,17 16,32 19,32 8,0 69,123 69,139 0,6 4,11 10,11 5,0 24,30 42,67 18,37 41,76 51,86 10,10 25,34 33,53 8,19 23,43 34,54 10,10 28,36 40,57 27,51 41,71 67,101 13,14 23,30 23,37 0,7 16,27 35,46 19,19 35,39 35,45 0,6 15,26 33,45 17,19 45,54 62,79 16,25 41,57 55,71 14,14 43,48 65,75 22,27 59,67 83,89 23,23 42,44 42,49 0,10 286,296 296,296 5,0 26,19 49,43 22,23 62,60 89,82 27,22 61,51 75,65 14,14 50,41 79,60 28,18 52,37 52,41 0,4 24,22 53,40 28,17 58,40 65,50 7,11 19,19 25,19 7,0 27,14 45,30 18,17 35,30 37,30 8,0 110,66 125,81 9,8 38,26 64,39 26,12 50,29 53,36 3,8 9,14 15,14 13,0 131,59 138,69 3,4 35,23 73,41 37,18 67,36 67,39 0,3 15,12 33,19 17,7 46,19 62,27 17,7 40,16 53,20 12,3 22,10 22,15 0,5 16,14 36,20 20,7 48,18 62,26 15,8 33,14 40,14 13,0 53,20 62,31 3,4 37,17 75,29 39,13 74,27 80,32 5,4 19,8 31,8 12,0 24,4 26,10 3,10 191,70 220,70 9,0 18,5 20,10 3,10 167,56 238,67 19,3 37,9 40,14 7,11 217,52 375,74 28,4 52,10 55,15 3,4 57,13 120,20 381,40 723,48 1040,25 z"
       inkscape:connector-curvature="0" />
    <path
       id="path3554"
       d="m 4753,9893 c -54,-4 -74,-25 -33,-36 13,-3 20,-14 20,-30 0,-14 6,-28 13,-31 10,-5 10,-7 0,-12 -14,-6 -18,-94 -4,-94 4,0 11,-35 15,-77 7,-89 26,-123 75,-137 17,-5 31,-13 31,-17 0,-5 23,-9 50,-9 28,0 50,5 50,10 0,6 9,10 21,10 27,0 79,37 79,56 0,9 7,22 15,30 12,12 15,45 15,157 0,78 4,147 8,153 4,6 16,16 27,22 16,9 7,11 -52,12 -42,0 -73,-4 -73,-10 0,-5 6,-10 14,-10 24,0 36,-59 36,-180 0,-159 -17,-195 -102,-206 -49,-7 -108,15 -108,41 0,7 -6,20 -14,28 -16,15 -36,203 -28,257 2,17 12,34 21,38 37,13 35,43 -2,40 -12,-1 -46,-3 -74,-5 z"
       inkscape:connector-curvature="0" />
    <path
       id="path3556"
       d="m 5220,9890 c 0,-5 7,-10 15,-10 24,0 28,-44 21,-203 -7,-151 -11,-166 -49,-180 -37,-14 -4,-27 69,-27 43,0 74,-4 74,-10 0,-5 23,-10 50,-10 28,0 50,5 50,10 0,6 12,10 26,10 14,0 47,12 73,27 36,20 53,38 69,73 48,105 20,241 -56,277 -21,9 -39,20 -42,23 -20,26 -300,44 -300,20 z m 264,-50 c 36,-15 49,-28 63,-60 10,-22 21,-40 25,-40 5,0 8,-25 8,-55 0,-30 -4,-55 -10,-55 -5,0 -10,-10 -10,-22 -1,-33 -51,-101 -80,-109 -14,-4 -51,-7 -82,-8 -92,-2 -98,10 -92,161 3,68 7,142 10,166 l 5,42 h 59 c 36,0 76,-8 104,-20 z"
       inkscape:connector-curvature="0" />
    <path
       id="path3558"
       d="m 4583,9883 c -13,-2 -23,-9 -23,-14 0,-5 -15,-9 -32,-9 -18,0 -49,-5 -69,-10 -19,-6 -78,-12 -130,-13 l -94,-4 -3,-51 c -3,-43 -1,-51 12,-46 9,3 16,10 16,15 0,4 11,20 25,34 20,19 36,25 69,25 h 43 l 7,-72 c 4,-40 10,-75 15,-78 4,-3 11,-32 14,-65 4,-33 9,-79 13,-103 6,-41 5,-43 -25,-53 -33,-11 -42,-29 -15,-29 37,0 154,24 154,31 0,5 -9,9 -19,9 -22,0 -31,19 -31,65 0,18 -4,35 -10,37 -9,3 -34,164 -34,233 -1,38 0,40 39,46 59,10 94,1 101,-27 11,-43 24,-25 24,31 0,57 0,57 -47,48 z"
       inkscape:connector-curvature="0" />
    <path
       id="path3560"
       d="m 5730,9852 c 0,-5 12,-13 26,-16 26,-7 27,-8 21,-79 -11,-133 -28,-242 -37,-245 -6,-2 -10,-10 -10,-19 0,-18 -24,-43 -41,-43 -8,0 -9,-3 -3,-8 13,-12 143,-34 155,-27 14,9 1,25 -22,25 -19,0 -20,4 -13,98 4,53 10,99 15,102 4,3 12,40 18,84 13,92 15,96 47,96 45,0 24,17 -28,24 -29,3 -70,9 -90,12 -23,4 -38,3 -38,-4 z"
       inkscape:connector-curvature="0" />
    <path
       id="path3562"
       d="m 4060,9791 c 0,-5 -14,-11 -30,-15 -47,-9 -80,-51 -80,-100 0,-49 32,-106 59,-106 11,0 23,-4 26,-10 3,-5 15,-10 26,-10 10,0 19,-4 19,-9 0,-5 15,-14 33,-20 35,-12 61,-37 71,-69 9,-29 -2,-49 -35,-62 -16,-7 -29,-16 -29,-21 0,-12 -38,-11 -53,1 -7,5 -25,21 -41,35 -36,31 -50,32 -42,3 3,-13 6,-29 6,-35 0,-15 51,-43 78,-43 40,0 118,33 136,57 26,35 31,91 12,135 -12,28 -27,42 -62,57 -26,12 -52,21 -60,21 -7,0 -19,6 -26,13 -7,6 -25,18 -41,26 -48,25 -49,88 -1,109 41,19 76,14 106,-15 27,-26 28,-26 28,-5 0,11 -5,33 -12,47 -9,20 -18,25 -50,25 -21,0 -38,-4 -38,-9 z"
       inkscape:connector-curvature="0" />
    <path
       id="path3564"
       d="m 6120,9790 c 0,-5 -11,-10 -25,-10 -40,0 -116,-55 -135,-98 -68,-151 -3,-300 145,-333 68,-15 161,0 182,31 8,11 20,20 26,20 36,1 82,136 71,205 -12,77 -39,120 -94,149 -27,14 -59,26 -70,26 -11,0 -20,5 -20,10 0,6 -18,10 -40,10 -22,0 -40,-4 -40,-10 z m 141,-56 c 32,-29 49,-81 49,-149 0,-107 -40,-187 -101,-200 -16,-4 -29,-11 -29,-16 0,-12 -38,-11 -53,2 -7,5 -28,18 -47,27 -49,24 -70,71 -70,159 0,89 24,151 71,182 29,18 44,21 97,18 42,-3 70,-11 83,-23 z"
       inkscape:connector-curvature="0" />
    <path
       id="path3566"
       d="m 6516,9683 c -4,-4 2,-14 14,-23 17,-13 19,-20 11,-45 -5,-17 -20,-64 -32,-105 -13,-41 -26,-77 -29,-80 -3,-3 -12,-25 -19,-50 -17,-58 -27,-70 -62,-70 -50,0 -23,-25 53,-48 75,-23 89,-22 68,3 -19,23 4,141 32,159 20,12 58,-17 58,-45 0,-36 33,-144 46,-152 8,-4 14,-14 14,-21 0,-17 79,-58 93,-49 6,4 -1,16 -14,28 -14,11 -29,30 -33,40 -12,30 -47,177 -43,181 2,2 21,10 43,17 45,16 64,45 64,101 0,68 -32,101 -125,130 -104,32 -130,37 -139,29 z m 170,-80 c 35,-38 39,-65 15,-117 -19,-43 -22,-46 -58,-46 -66,0 -83,9 -83,41 0,16 4,29 9,29 6,0 18,27 27,60 14,52 20,60 41,60 13,0 35,-12 49,-27 z"
       inkscape:connector-curvature="0" />
    <path
       id="path3568"
       d="m 3553,9645 c -18,-8 -33,-19 -33,-25 0,-5 -6,-10 -13,-10 -17,0 -37,-42 -37,-76 0,-14 7,-39 17,-54 18,-30 79,-70 109,-70 37,0 93,-26 114,-52 29,-37 26,-83 -5,-104 -37,-24 -112,-14 -141,20 -34,39 -40,4 -7,-45 27,-40 27,-40 76,-34 51,7 58,11 106,55 57,53 59,123 5,165 -14,11 -33,27 -42,35 -10,9 -47,21 -82,28 -97,17 -128,69 -75,126 31,34 71,34 97,1 27,-34 52,-34 44,1 -4,15 -13,33 -21,40 -17,18 -71,17 -112,-1 z"
       inkscape:connector-curvature="0" />
    <path
       id="path3570"
       d="m 6920,9548 c 0,-6 7,-19 15,-28 13,-14 14,-23 4,-46 -19,-47 -34,-79 -39,-84 -3,-3 -16,-29 -30,-59 -29,-64 -35,-185 -11,-215 25,-29 115,-66 163,-66 84,0 136,52 188,188 7,17 16,32 21,32 5,0 9,7 9,16 0,9 9,28 20,44 15,21 25,26 45,22 18,-3 25,0 25,12 0,9 -8,19 -17,22 -10,3 -40,15 -66,26 -54,21 -69,18 -44,-10 19,-21 21,-40 8,-74 -5,-13 -17,-43 -26,-68 -28,-72 -39,-94 -52,-103 -7,-4 -13,-14 -13,-22 0,-7 -14,-24 -31,-36 -43,-30 -123,-22 -156,16 -13,14 -23,33 -23,41 0,8 -4,14 -10,14 -12,0 -14,47 -2,52 4,2 15,26 24,53 32,95 45,127 55,134 5,3 16,21 24,39 8,18 21,32 29,31 58,-5 52,12 -12,35 -28,10 -58,24 -65,32 -17,17 -33,18 -33,2 z"
       inkscape:connector-curvature="0" />
    <path
       id="path3572"
       d="m 3188,9486 c -19,-14 -26,-86 -9,-86 5,0 12,-75 16,-166 7,-160 7,-166 -14,-185 -25,-23 -27,-39 -6,-39 15,0 55,19 65,31 3,4 15,9 28,13 30,10 28,24 -5,28 -28,3 -28,4 -28,72 v 70 l 58,20 58,21 30,-35 c 16,-19 35,-42 42,-51 12,-14 11,-18 -5,-28 -11,-7 -17,-17 -15,-24 5,-15 35,-10 54,9 8,7 32,19 53,25 44,13 58,44 16,33 -20,-5 -33,4 -74,48 -28,29 -85,89 -126,132 -42,44 -76,82 -76,86 0,7 -34,40 -41,40 -2,0 -12,-7 -21,-14 z"
       inkscape:connector-curvature="0" />
    <path
       id="path3574"
       d="m 2984,9405 c -4,-8 -13,-15 -20,-15 -8,0 -17,-7 -20,-15 -4,-8 -10,-15 -16,-15 -11,0 -131,-59 -138,-68 -13,-18 -76,-45 -103,-44 -28,1 -29,0 -23,-36 3,-20 10,-38 16,-40 5,-2 10,-10 10,-18 0,-27 18,-5 24,30 7,35 34,60 78,71 17,4 29,0 43,-18 24,-28 65,-107 65,-124 0,-7 9,-22 20,-33 25,-25 60,-98 60,-126 0,-12 -7,-27 -15,-34 -8,-7 -13,-16 -10,-20 6,-9 122,47 150,73 19,18 19,18 -18,15 -37,-2 -66,19 -67,49 0,6 -4,13 -8,15 -11,4 -52,77 -52,92 0,7 -8,21 -17,32 -22,24 -63,104 -63,122 0,7 21,22 48,33 39,17 52,19 78,10 43,-16 43,-16 25,34 -16,45 -37,58 -47,30 z"
       inkscape:connector-curvature="0" />
    <path
       id="path3576"
       d="m 7407,9324 c -3,-4 1,-17 9,-29 13,-20 13,-27 -2,-59 -10,-20 -21,-36 -25,-36 -5,0 -20,-21 -36,-47 -15,-27 -40,-61 -55,-77 -15,-17 -28,-35 -28,-42 0,-23 -51,-54 -76,-48 -24,6 -30,-2 -16,-22 13,-20 112,-64 112,-51 0,7 -5,18 -11,24 -12,12 2,62 25,86 18,20 76,105 76,112 0,3 10,16 21,28 l 21,22 -6,-75 c -14,-165 -19,-200 -27,-200 -5,0 -9,-18 -9,-40 0,-45 12,-50 50,-20 14,11 30,20 36,20 7,0 14,6 17,13 2,7 25,23 51,35 25,13 52,29 58,36 16,15 98,58 98,50 0,-13 -41,-84 -49,-84 -5,0 -14,-12 -20,-27 -13,-37 -54,-106 -66,-115 -5,-4 -20,-5 -32,-1 -38,9 -26,-16 15,-35 22,-10 47,-25 56,-35 10,-9 22,-17 27,-17 12,0 11,24 -1,36 -11,11 4,61 21,74 4,3 21,32 39,65 18,33 36,62 39,65 7,4 22,31 55,97 12,25 61,32 69,11 3,-7 6,-4 6,8 1,29 -72,64 -97,46 -10,-6 -32,-19 -49,-28 -18,-9 -33,-20 -33,-25 0,-5 -15,-15 -32,-23 -35,-16 -90,-47 -98,-57 -14,-15 -56,-39 -70,-39 -12,0 -14,14 -12,85 2,47 8,85 13,85 5,0 9,18 9,40 0,21 5,62 11,89 9,42 8,53 -4,66 -9,8 -20,15 -25,15 -5,0 -15,7 -22,15 -13,16 -23,19 -33,9 z"
       inkscape:connector-curvature="0" />
    <path
       id="path3578"
       d="m 2548,9148 c -13,-13 -36,-29 -51,-37 -35,-19 -35,-34 1,-26 32,7 45,-5 77,-67 11,-21 23,-38 27,-38 3,0 13,-12 21,-27 34,-66 46,-86 54,-92 14,-10 43,-59 43,-72 0,-7 -7,-21 -17,-31 -15,-17 -15,-18 4,-18 11,0 26,7 33,15 7,8 18,15 25,15 12,0 65,44 65,55 0,3 -15,5 -33,5 -28,0 -36,6 -54,38 -47,87 -59,106 -80,130 -13,14 -23,30 -23,37 0,6 -13,27 -30,45 -36,40 -37,53 -7,73 l 22,16 h -26 c -14,1 -37,-9 -51,-21 z"
       inkscape:connector-curvature="0" />
    <path
       id="path3580"
       d="m 2354,9019 c -47,-13 -96,-73 -102,-124 -4,-36 -1,-46 19,-63 77,-66 65,-62 167,-60 94,2 94,2 118,-27 31,-39 30,-54 -6,-96 -26,-28 -38,-33 -70,-33 -21,1 -46,9 -55,18 -20,19 -35,21 -35,3 0,-13 32,-46 56,-60 23,-13 98,24 136,65 30,33 38,50 38,79 0,21 -7,44 -15,53 -8,8 -15,19 -15,24 0,6 -20,20 -45,32 -40,19 -55,21 -120,15 -83,-7 -110,2 -126,42 -7,20 -5,32 11,58 22,36 73,56 93,36 11,-11 47,-15 47,-6 0,7 -53,55 -60,54 -3,-1 -19,-5 -36,-10 z"
       inkscape:connector-curvature="0" />
    <path
       id="path3582"
       d="m 8070,8879 c 0,-6 5,-19 10,-30 15,-27 4,-43 -100,-148 -117,-117 -138,-131 -168,-118 -42,19 -36,-3 14,-48 47,-42 74,-56 74,-36 0,5 -7,11 -15,15 -8,3 -15,9 -15,13 0,11 66,88 118,136 23,22 42,46 42,52 0,7 9,15 20,18 17,4 18,1 13,-27 -3,-17 -9,-33 -13,-36 -4,-3 -10,-18 -14,-35 -11,-50 -23,-97 -41,-163 -9,-35 -14,-66 -11,-69 3,-4 16,-2 29,4 66,30 99,43 112,43 8,0 15,4 15,9 0,4 21,16 48,25 26,10 62,24 81,32 43,19 52,10 18,-17 -15,-11 -27,-25 -27,-31 0,-5 -13,-24 -30,-41 -16,-18 -45,-50 -64,-72 -31,-35 -37,-39 -55,-28 -13,8 -22,9 -26,2 -7,-10 105,-123 113,-114 3,3 1,15 -5,28 -13,28 6,69 48,105 16,13 29,29 29,35 0,12 13,27 96,110 43,43 50,47 81,41 41,-8 37,8 -12,49 l -34,28 -42,-20 c -24,-12 -48,-21 -55,-21 -7,0 -19,-6 -26,-13 -7,-7 -26,-18 -43,-24 -16,-6 -60,-22 -97,-36 -71,-26 -84,-24 -69,15 12,32 41,161 41,186 0,11 6,27 13,34 8,7 20,30 26,51 11,31 10,39 -3,52 -8,8 -19,15 -25,15 -6,0 -16,9 -23,20 -14,22 -28,26 -28,9 z"
       inkscape:connector-curvature="0" />
    <path
       id="path3584"
       d="m 2027,8750 c -38,-19 -157,-132 -157,-150 0,-13 17,-13 25,0 3,6 11,10 16,10 14,0 125,-116 160,-167 17,-24 34,-43 39,-43 5,0 17,-14 26,-31 13,-26 14,-36 3,-55 -19,-36 -3,-40 28,-8 16,16 41,38 55,49 37,27 41,51 7,47 -29,-3 -84,36 -94,68 -4,11 -13,20 -21,20 -19,0 -18,10 4,26 22,17 57,17 107,-1 57,-20 156,-19 194,3 35,19 41,42 12,42 -11,0 -22,-6 -25,-12 -5,-10 -7,-10 -12,0 -3,6 -22,12 -41,12 -56,0 -173,32 -173,47 0,7 5,13 10,13 6,0 10,16 10,35 0,19 -4,35 -10,35 -5,0 -10,9 -10,19 0,26 -51,61 -87,61 -15,-1 -45,-9 -66,-20 z m 87,-62 c 41,-36 47,-72 19,-119 -24,-41 -53,-48 -73,-18 -8,13 -26,35 -40,49 -53,51 -54,57 -28,89 32,42 75,41 122,-1 z"
       inkscape:connector-curvature="0" />
    <path
       id="path3586"
       d="m 3011,8643 c -7,-3 -21,-13 -31,-23 -9,-9 -38,-27 -63,-39 -26,-13 -47,-27 -47,-31 0,-5 -13,-16 -30,-24 -16,-9 -43,-23 -60,-32 -16,-8 -33,-21 -37,-28 -5,-8 -30,-27 -58,-44 -27,-17 -57,-40 -65,-51 -8,-12 -19,-21 -25,-21 -6,0 -25,-13 -43,-29 -17,-17 -40,-36 -51,-43 -106,-75 -464,-433 -539,-539 -7,-11 -26,-34 -43,-51 -16,-18 -29,-38 -29,-45 0,-7 -9,-18 -21,-25 -11,-7 -34,-35 -51,-63 -17,-27 -36,-53 -44,-58 -7,-4 -19,-20 -27,-35 -8,-15 -22,-42 -31,-59 -10,-18 -21,-33 -26,-33 -4,0 -18,-21 -31,-47 -12,-25 -30,-54 -38,-62 -9,-9 -31,-47 -50,-84 -19,-37 -37,-67 -40,-67 -7,0 -54,-99 -66,-137 -3,-13 -10,-23 -14,-23 -8,0 -81,-159 -81,-175 0,-4 -6,-12 -13,-19 -6,-7 -25,-53 -42,-102 -16,-49 -32,-91 -36,-94 -3,-3 -12,-23 -19,-45 -7,-22 -16,-51 -21,-65 -4,-14 -11,-40 -14,-58 -4,-18 -12,-38 -19,-45 -12,-13 -45,-137 -73,-282 -10,-49 -21,-92 -25,-95 -15,-12 -68,-429 -68,-542 0,-45 -4,-78 -10,-78 -6,0 -10,-33 -10,-79 0,-63 3,-80 16,-85 9,-3 909,-6 2000,-6 1727,0 1984,2 1984,15 0,7 -6,18 -13,22 -7,4 -28,39 -47,77 -19,38 -40,74 -46,81 -7,6 -26,40 -44,75 -17,34 -40,72 -51,83 -10,11 -19,27 -19,34 0,15 -27,62 -44,78 -6,6 -24,37 -40,70 -16,33 -34,65 -40,70 -7,6 -30,46 -51,90 -22,44 -43,82 -48,83 -4,2 -21,33 -38,68 -17,35 -34,64 -38,64 -8,0 -71,123 -71,139 0,5 -6,11 -13,14 -7,3 -26,32 -42,66 -16,34 -32,61 -36,61 -4,0 -23,34 -43,75 -20,41 -40,75 -44,75 -4,0 -23,32 -41,70 -19,39 -37,70 -41,70 -4,0 -19,27 -35,61 -15,33 -34,63 -41,66 -8,3 -14,11 -14,19 0,8 -11,32 -25,54 -14,22 -25,44 -25,49 0,6 -6,14 -13,18 -7,4 -30,44 -52,88 -22,44 -44,85 -51,90 -6,6 -24,37 -40,70 -16,33 -34,65 -41,70 -7,6 -21,31 -31,56 -11,25 -26,52 -34,60 -7,8 -31,49 -53,92 -21,42 -42,77 -46,77 -4,0 -21,30 -39,67 -18,37 -38,72 -45,79 -6,7 -25,38 -41,71 -16,32 -32,60 -36,63 -3,3 -21,32 -38,65 -17,33 -35,62 -39,65 -4,3 -24,39 -45,80 -22,41 -42,77 -47,80 -4,3 -22,36 -39,73 -18,37 -36,67 -40,67 -5,0 -21,26 -35,58 -15,31 -33,62 -39,67 -7,6 -27,40 -44,77 -18,36 -36,68 -40,70 -5,2 -23,33 -41,71 -18,37 -33,67 -34,66 -1,0 -8,-3 -16,-6 z m 214,-934 c 4,-11 5,-186 4,-387 -3,-263 0,-412 11,-524 8,-87 17,-158 21,-158 4,0 10,-44 13,-97 7,-100 29,-356 46,-543 6,-58 10,-124 10,-147 0,-27 5,-43 13,-44 8,0 8,-2 -2,-6 -9,-4 -10,-8 -2,-12 10,-7 38,-298 29,-307 -6,-5 -1128,-8 -1133,-2 -2,2 0,58 6,123 5,66 12,166 16,223 3,56 9,102 13,102 4,0 12,64 18,143 7,78 17,189 22,247 25,260 30,328 30,373 0,26 4,47 9,47 16,0 21,117 27,563 l 6,427 h 418 c 416,0 419,0 425,-21 z"
       inkscape:connector-curvature="0" />
    <path
       id="path3588"
       d="m 2484,7621 c -2,-2 -4,-123 -4,-268 v -263 l 321,2 322,3 -2,260 -1,260 -45,5 c -25,4 -48,4 -50,1 -3,-2 -5,-33 -5,-68 v -63 h -75 -75 v 65 65 h -55 c -30,0 -58,0 -62,0 -5,0 -10,-28 -13,-62 l -5,-63 -62,-3 -63,-3 v 65 64 l -61,4 c -33,1 -63,1 -65,-1 z"
       inkscape:connector-curvature="0" />
    <path
       id="path3590"
       d="m 2483,7002 c -9,-5 -17,-62 -24,-168 -6,-87 -15,-161 -19,-164 -4,-3 -10,-41 -13,-85 -32,-437 -72,-881 -79,-883 -4,-2 -8,-28 -8,-58 v -54 h 165 165 v 241 242 l 44,43 c 37,38 49,44 85,44 22,0 41,-4 41,-10 0,-5 6,-10 14,-10 19,0 66,-57 66,-80 0,-10 6,-21 13,-24 10,-5 10,-7 0,-12 -7,-3 -13,-17 -13,-30 0,-13 6,-24 13,-24 8,0 7,-4 -3,-10 -13,-9 -13,-10 0,-10 13,0 13,-1 0,-10 -10,-6 -11,-10 -2,-10 9,0 12,-32 12,-125 0,-77 -4,-125 -10,-125 -14,0 -12,-37 3,-43 10,-4 10,-6 0,-6 -18,-1 -16,-28 3,-35 9,-3 83,-6 166,-6 h 151 l -6,103 c -4,56 -13,179 -21,272 -9,94 -20,240 -27,325 -6,85 -15,157 -19,160 -4,3 -10,43 -13,90 -9,160 -29,395 -36,430 l -7,35 -314,2 c -173,2 -321,-1 -327,-5 z m 362,-231 30,-18 3,-146 3,-147 h -81 -80 v 138 c 0,148 8,176 53,185 36,7 41,6 72,-12 z"
       inkscape:connector-curvature="0" />
    <path
       id="path3592"
       d="m 4796,8624 c -3,-9 -6,-130 -6,-270 v -254 h 325 325 v 270 270 h -46 c -29,0 -51,-6 -62,-17 -12,-12 -13,-18 -4,-21 16,-5 16,-72 0,-72 -9,0 -8,-3 2,-10 26,-16 0,-25 -73,-25 h -72 l -3,73 -3,72 h -59 c -67,0 -67,0 -72,-95 l -3,-50 h -55 -55 l -3,50 c -5,94 -5,95 -71,95 -44,0 -60,-4 -65,-16 z"
       inkscape:connector-curvature="0" />
    <path
       id="path3594"
       d="m 7175,8575 c -16,-36 -33,-65 -37,-65 -4,0 -22,-30 -40,-67 -18,-38 -37,-72 -43,-78 -18,-16 -45,-63 -45,-78 0,-8 -10,-25 -23,-38 -12,-13 -35,-52 -52,-86 -16,-35 -32,-63 -35,-63 -4,0 -24,-35 -45,-77 -21,-43 -41,-80 -45,-83 -3,-3 -21,-32 -39,-65 -19,-33 -37,-62 -40,-65 -3,-3 -19,-31 -35,-63 -16,-33 -34,-64 -41,-70 -6,-7 -26,-41 -44,-77 -19,-36 -37,-67 -42,-70 -9,-6 -69,-125 -69,-137 0,-4 -12,-19 -25,-32 -14,-13 -25,-30 -25,-37 0,-16 -27,-63 -45,-79 -6,-5 -24,-37 -40,-70 -15,-33 -39,-71 -52,-84 -12,-13 -23,-29 -23,-36 0,-13 -48,-107 -59,-115 -4,-3 -17,-24 -28,-47 -32,-62 -47,-87 -55,-93 -4,-3 -21,-35 -39,-70 -17,-36 -35,-67 -39,-70 -4,-3 -23,-34 -41,-70 -18,-36 -38,-69 -45,-75 -7,-5 -26,-40 -44,-77 -18,-38 -36,-68 -40,-68 -5,0 -16,-20 -26,-45 -9,-25 -27,-56 -39,-69 -12,-13 -31,-45 -41,-71 -10,-26 -28,-57 -40,-70 -11,-12 -35,-52 -52,-88 -18,-36 -35,-67 -39,-69 -5,-1 -26,-39 -48,-83 -21,-44 -44,-84 -51,-90 -6,-5 -24,-37 -40,-70 -16,-33 -34,-64 -41,-70 -7,-5 -24,-35 -39,-65 -15,-30 -30,-57 -34,-60 -4,-3 -22,-34 -40,-69 -17,-36 -37,-70 -44,-76 -6,-7 -27,-43 -46,-81 -19,-38 -40,-73 -47,-77 -7,-4 -13,-15 -13,-22 0,-13 257,-15 1984,-15 1091,0 1991,3 2000,6 13,5 16,22 16,80 0,43 -4,74 -10,74 -6,0 -10,33 -10,78 0,69 -26,322 -50,477 -5,33 -14,61 -19,63 -6,2 -11,14 -11,26 0,21 -28,157 -50,246 -5,19 -12,49 -16,65 -4,17 -11,32 -15,35 -8,6 -37,100 -46,153 -3,15 -9,30 -14,33 -5,3 -9,14 -9,25 0,10 -4,19 -8,19 -4,0 -21,41 -37,90 -15,50 -37,100 -47,112 -10,12 -21,33 -25,47 -9,36 -53,135 -63,141 -4,3 -20,34 -35,70 -14,36 -32,70 -38,75 -7,6 -28,41 -47,80 -19,38 -42,77 -51,86 -8,8 -26,37 -38,62 -13,26 -27,47 -31,47 -5,0 -15,12 -23,28 -8,15 -22,42 -31,59 -10,18 -23,36 -30,40 -8,5 -27,31 -44,58 -17,28 -40,56 -51,63 -12,7 -21,18 -21,25 0,6 -13,26 -28,42 -15,17 -34,40 -42,51 -62,90 -449,478 -541,542 -11,7 -34,26 -51,43 -18,16 -38,29 -45,29 -7,0 -18,9 -25,21 -7,11 -35,34 -63,51 -27,17 -53,36 -58,44 -4,7 -21,20 -37,28 -17,9 -43,23 -60,32 -16,8 -30,19 -30,24 0,4 -25,20 -56,36 -31,16 -59,34 -61,41 -3,7 -15,13 -27,13 -16,0 -28,-15 -51,-65 z m 690,-867 c 2,-13 6,-216 7,-452 2,-333 6,-430 16,-434 7,-2 12,-23 12,-55 0,-52 12,-206 30,-377 5,-52 15,-166 22,-252 6,-87 16,-158 20,-158 4,0 8,-17 8,-37 0,-49 19,-278 30,-367 5,-39 5,-76 1,-83 -6,-12 -106,-14 -570,-14 -309,-1 -564,1 -565,3 -6,6 16,263 23,268 4,3 13,75 20,160 7,85 19,225 26,310 8,85 17,197 20,248 4,50 10,92 15,92 4,0 10,44 14,98 4,53 11,144 16,202 5,58 9,270 10,472 0,201 3,373 6,382 5,14 52,16 420,16 h 414 z"
       inkscape:connector-curvature="0" />
    <path
       id="path3596"
       d="m 7127,7624 c -4,-4 -7,-126 -7,-271 v -263 h 325 325 v 259 c 0,143 -3,262 -8,264 -4,3 -27,7 -52,8 l -45,4 -3,-68 -3,-67 h -74 -75 v 64 64 l -56,4 c -31,1 -60,1 -64,-2 -5,-3 -10,-32 -12,-65 l -3,-60 h -60 -60 l -3,63 -3,62 h -44 c -24,0 -50,2 -57,5 -8,3 -17,2 -21,-1 z"
       inkscape:connector-curvature="0" />
    <path
       id="path3598"
       d="m 7124,7002 c -6,-4 -16,-82 -23,-182 -7,-96 -17,-208 -22,-248 -5,-40 -9,-102 -9,-138 0,-35 -4,-64 -9,-64 -5,0 -12,-42 -15,-92 -11,-154 -35,-446 -47,-560 -6,-59 -9,-113 -7,-120 4,-10 41,-12 167,-10 l 161,3 v 230 c 0,251 7,289 54,311 15,6 26,15 26,20 0,4 20,8 45,8 39,0 50,-5 87,-41 l 43,-41 3,-244 3,-244 h 163 162 l -4,93 c -3,50 -8,94 -12,97 -4,3 -13,73 -19,155 -7,83 -20,249 -31,370 -10,121 -22,268 -26,328 -3,59 -10,107 -14,107 -4,0 -12,60 -16,133 l -9,132 -320,2 c -176,2 -325,0 -331,-5 z m 381,-243 c 18,-18 20,-33 20,-157 v -137 l -82,-3 -83,-3 v 138 c 1,146 4,158 50,180 31,15 69,8 95,-18 z"
       inkscape:connector-curvature="0" />
    <path
       id="path3600"
       d="m 1719,8473 c -30,-32 -65,-72 -77,-90 -12,-17 -31,-35 -42,-38 -33,-10 -24,-28 10,-21 29,5 40,-3 157,-119 122,-121 126,-126 114,-151 -6,-15 -10,-28 -8,-31 7,-6 37,8 37,18 0,5 43,52 95,103 52,52 95,99 95,105 0,6 -4,19 -9,29 -5,9 -12,25 -15,35 -11,35 -26,16 -26,-33 0,-47 -3,-53 -47,-95 -27,-25 -52,-45 -58,-45 -14,0 -95,66 -113,91 -13,19 -12,24 21,56 31,29 41,34 67,28 23,-5 30,-3 30,9 0,9 -7,16 -14,16 -8,0 -27,16 -42,35 -14,19 -33,35 -40,35 -18,0 -18,-15 1,-34 8,-8 15,-16 15,-19 0,-2 -18,-23 -39,-46 l -39,-42 -56,57 c -31,31 -56,58 -56,59 0,1 21,23 46,49 41,44 49,48 80,43 19,-3 34,-2 34,2 0,11 -44,51 -56,51 -5,0 -34,-26 -65,-57 z"
       inkscape:connector-curvature="0" />
    <path
       id="path3602"
       d="m 8490,8380 c 0,-5 -8,-10 -19,-10 -10,0 -39,-12 -65,-26 -65,-36 -90,-87 -91,-180 0,-84 12,-112 75,-174 57,-56 128,-75 208,-55 87,23 172,129 172,215 0,29 -6,49 -39,122 -17,39 -77,85 -123,95 -16,3 -28,9 -28,14 0,5 -20,9 -45,9 -25,0 -45,-4 -45,-10 z m 145,-52 c 14,-6 35,-26 46,-45 11,-18 25,-33 30,-33 5,0 9,-22 9,-50 0,-27 -4,-50 -10,-50 -5,0 -10,-6 -10,-13 0,-26 -58,-100 -100,-128 -24,-16 -56,-29 -72,-29 -15,0 -28,-6 -29,-12 0,-10 -2,-10 -6,0 -2,6 -15,12 -27,12 -50,0 -116,77 -116,135 0,26 22,85 32,85 4,0 8,6 8,13 0,19 70,88 115,114 27,15 98,16 130,1 z"
       inkscape:connector-curvature="0" />
    <path
       id="path3604"
       d="m 1528,8268 c -17,-15 -58,-73 -58,-83 0,-3 8,-4 18,-1 27,8 46,-13 82,-89 19,-38 37,-72 41,-75 9,-7 50,-93 45,-97 -7,-7 -171,37 -174,47 -2,5 -10,10 -18,10 -8,0 -32,6 -54,13 -37,11 -40,14 -34,40 9,43 -17,33 -56,-23 -19,-27 -38,-50 -42,-50 -5,0 -8,-7 -8,-15 0,-11 9,-13 43,-9 26,3 65,-1 102,-11 33,-10 74,-20 90,-23 17,-2 33,-9 36,-14 4,-6 33,-17 65,-25 33,-8 75,-18 94,-23 19,-5 36,-7 38,-5 7,6 -30,95 -42,103 -13,8 -66,113 -66,130 0,6 -6,15 -13,19 -23,14 -70,139 -63,167 7,28 -2,33 -26,14 z"
       inkscape:connector-curvature="0" />
    <path
       id="path3606"
       d="m 8896,8025 c 5,-27 3,-36 -10,-41 -9,-3 -30,-19 -47,-35 -17,-16 -36,-29 -43,-29 -6,0 -26,-16 -45,-35 -19,-19 -39,-35 -45,-35 -6,0 -26,-13 -44,-30 -36,-33 -67,-39 -76,-15 -7,20 -26,19 -26,-1 0,-15 23,-49 64,-96 9,-10 27,-37 42,-60 44,-71 59,-81 110,-73 30,4 44,11 44,21 0,13 -8,15 -37,10 -29,-4 -43,-1 -60,13 -13,11 -23,22 -23,26 0,4 -9,18 -20,32 -11,14 -20,33 -20,43 0,18 40,60 58,60 6,0 16,8 21,19 6,10 25,26 44,34 18,9 45,28 61,42 15,14 29,25 32,25 3,0 18,9 33,21 23,17 33,19 49,10 36,-19 44,-13 25,19 -9,17 -20,30 -23,30 -3,0 -16,18 -30,40 -30,49 -43,51 -34,5 z"
       inkscape:connector-curvature="0" />
    <path
       id="path3608"
       d="m 4787,7963 c -3,-27 -12,-119 -18,-205 -7,-87 -16,-158 -21,-158 -4,0 -8,-26 -8,-57 0,-32 -4,-96 -9,-143 -5,-47 -12,-125 -16,-175 -5,-81 -14,-189 -31,-400 -3,-38 -10,-71 -15,-73 -5,-2 -9,-39 -9,-83 v -79 l 160,2 160,3 3,240 2,240 25,29 c 52,60 62,66 111,66 38,0 51,-5 70,-26 13,-14 32,-35 42,-45 15,-17 17,-45 17,-264 v -245 h 165 165 v 64 c 0,35 -4,66 -9,68 -6,2 -13,41 -16,88 -3,47 -15,195 -26,330 -11,135 -23,290 -26,345 -3,55 -9,102 -13,105 -5,3 -13,75 -20,160 -6,85 -13,166 -15,180 -2,14 -4,37 -4,53 l -1,27 h -329 -328 z m 398,-200 c 11,-13 14,-53 15,-148 0,-132 -9,-175 -31,-145 -8,11 -12,12 -16,3 -3,-8 -24,-13 -53,-13 -36,0 -50,4 -55,18 -9,22 -9,244 0,272 4,12 16,25 28,31 33,13 96,3 112,-18 z"
       inkscape:connector-curvature="0" />
    <path
       id="path3610"
       d="m 1230,7888 c 0,-7 -13,-28 -29,-47 -37,-43 -56,-79 -48,-88 4,-3 15,2 26,11 18,17 21,16 60,-8 22,-14 43,-26 45,-26 3,0 17,-11 32,-25 15,-14 32,-25 39,-25 6,0 24,-13 41,-29 16,-15 43,-35 60,-44 36,-18 45,-35 37,-66 -12,-45 18,-19 72,62 29,44 31,57 10,57 -8,0 -15,-7 -15,-15 0,-23 -36,-18 -66,10 -15,14 -32,25 -39,25 -6,0 -24,13 -41,29 -16,15 -42,35 -59,44 -16,9 -43,27 -60,41 -16,14 -36,30 -42,36 -8,6 -10,22 -6,40 3,19 1,30 -6,30 -6,0 -11,-6 -11,-12 z"
       inkscape:connector-curvature="0" />
    <path
       id="path3612"
       d="m 9106,7721 c 5,-22 1,-32 -21,-50 -15,-11 -33,-21 -40,-21 -7,0 -15,-6 -18,-13 -3,-8 -30,-27 -61,-43 -31,-16 -56,-32 -56,-35 0,-4 -23,-19 -50,-33 -46,-24 -52,-25 -66,-11 -18,17 -34,20 -34,5 0,-13 20,-49 43,-74 10,-11 20,-31 23,-43 9,-35 24,-27 24,12 0,25 5,38 18,42 9,4 22,12 27,19 6,7 34,25 64,41 29,15 56,34 58,41 3,6 10,12 17,12 6,0 27,11 47,24 44,30 71,35 93,17 26,-21 33,-3 12,32 -10,18 -25,46 -34,62 -29,52 -55,61 -46,16 z"
       inkscape:connector-curvature="0" />
    <path
       id="path3614"
       d="m 1075,7656 c -10,-25 -26,-54 -36,-65 -18,-19 -18,-21 -3,-21 10,0 25,7 34,15 16,14 22,14 59,-1 22,-9 41,-20 41,-25 0,-5 8,-12 18,-16 64,-22 131,-60 129,-73 -2,-15 -16,-19 -237,-56 -58,-10 -106,-22 -108,-26 -2,-4 -16,-8 -31,-8 -23,0 -31,-7 -46,-40 -10,-22 -23,-40 -29,-40 -6,0 -4,-5 4,-10 11,-7 19,-5 32,10 16,20 68,28 68,11 0,-4 29,-23 65,-42 36,-18 65,-36 65,-40 0,-4 8,-9 18,-12 9,-3 40,-19 67,-35 45,-26 50,-32 47,-61 -3,-38 14,-41 31,-3 6,15 17,33 24,40 19,19 35,53 30,59 -3,2 -17,-3 -31,-12 -23,-15 -28,-16 -57,-1 -18,9 -38,16 -46,16 -7,0 -13,4 -13,9 0,5 -29,23 -65,41 -36,18 -65,36 -65,41 0,5 -7,9 -15,9 -8,0 -15,4 -15,8 0,5 33,14 73,21 39,7 91,17 114,22 23,5 53,9 67,9 14,0 26,4 26,9 0,5 19,12 43,16 96,15 107,18 107,30 0,8 -9,17 -20,20 -11,3 -20,10 -20,14 0,4 -35,25 -77,46 -43,21 -80,41 -83,45 -3,4 -21,15 -41,24 -41,19 -109,76 -91,76 7,0 12,9 12,20 0,36 -28,21 -45,-24 z"
       inkscape:connector-curvature="0" />
    <path
       id="path3616"
       d="m 9149,7477 c -39,-33 -50,-61 -56,-140 -3,-40 -12,-84 -19,-99 -16,-32 -66,-46 -99,-28 -46,25 -60,105 -25,140 21,21 27,50 11,50 -6,0 -24,-13 -40,-28 -29,-27 -31,-31 -23,-74 13,-70 41,-109 87,-125 51,-18 91,-10 133,25 30,26 33,34 44,123 6,51 16,100 22,108 41,53 126,17 126,-55 0,-22 -6,-37 -15,-40 -17,-7 -20,-44 -4,-44 7,0 23,12 36,26 28,30 25,64 -10,125 -35,61 -118,80 -168,36 z"
       inkscape:connector-curvature="0" />
    <path
       id="path3618"
       d="m 9390,7230 c 0,-26 -7,-33 -50,-55 -27,-14 -55,-25 -61,-25 -7,0 -17,-6 -23,-14 -6,-7 -42,-25 -80,-40 -37,-15 -75,-33 -83,-41 -20,-21 -34,-19 -40,5 -6,22 -43,28 -43,7 0,-7 9,-23 21,-35 11,-13 26,-39 33,-59 14,-40 43,-61 33,-24 -7,30 19,56 78,77 28,9 55,22 60,28 11,12 103,53 153,68 27,7 37,6 51,-6 10,-9 21,-16 24,-16 13,0 7,48 -6,53 -6,2 -20,28 -31,56 -20,57 -36,66 -36,21 z"
       inkscape:connector-curvature="0" />
    <path
       id="path3620"
       d="m 811,7174 c -25,-69 -23,-88 7,-61 14,13 25,14 62,6 24,-6 49,-14 55,-18 5,-4 30,-14 54,-21 25,-8 58,-27 75,-42 17,-15 36,-28 42,-28 14,0 34,-52 34,-86 0,-36 -19,-69 -51,-88 -16,-9 -29,-21 -29,-27 0,-5 -16,-9 -35,-9 -19,0 -35,4 -35,10 0,5 -12,12 -27,16 -16,3 -46,12 -68,21 -135,52 -155,65 -155,100 0,31 -16,29 -24,-2 -4,-14 -11,-25 -16,-25 -6,0 -10,-6 -10,-14 0,-7 -7,-27 -15,-42 -11,-22 -12,-30 -3,-33 7,-2 14,1 16,8 5,14 58,15 67,1 3,-5 15,-10 25,-10 10,0 25,-6 32,-13 23,-23 157,-67 203,-67 61,0 103,28 131,87 50,106 15,203 -89,248 -18,7 -48,20 -69,29 -20,9 -41,16 -47,16 -6,0 -11,4 -11,9 0,5 -18,16 -40,25 -34,14 -40,20 -40,46 0,48 -13,35 -39,-36 z"
       inkscape:connector-curvature="0" />
    <path
       id="path3622"
       d="m 9488,7015 c 3,-19 0,-25 -13,-25 -10,0 -23,-6 -29,-14 -10,-13 -105,-52 -153,-63 -13,-3 -23,-9 -23,-13 0,-9 -85,-40 -107,-40 -8,0 -21,7 -30,16 -23,22 -37,3 -22,-29 7,-15 15,-27 19,-27 4,0 12,-18 19,-40 14,-46 28,-52 33,-13 2,18 10,29 23,32 11,2 24,9 30,16 5,6 52,27 103,45 50,18 92,35 92,39 0,9 80,32 91,26 5,-4 9,-13 9,-21 0,-8 9,-14 21,-14 16,0 19,4 14,18 -4,9 -10,25 -12,35 -3,9 -9,17 -13,17 -4,0 -12,18 -19,40 -13,44 -41,57 -33,15 z"
       inkscape:connector-curvature="0" />
    <path
       id="path3624"
       d="m 642,6484 c -42,-47 -41,-78 3,-120 38,-38 64,-42 118,-19 37,15 47,31 47,73 0,69 -34,102 -103,102 -26,0 -40,-8 -65,-36 z"
       inkscape:connector-curvature="0" />
    <path
       id="path3626"
       d="m 9432,6504 c -14,-13 -24,-35 -28,-65 -5,-39 -3,-49 19,-75 21,-24 33,-29 72,-29 39,0 51,5 72,29 22,26 24,36 19,75 -8,58 -23,73 -83,78 -37,4 -53,1 -71,-13 z"
       inkscape:connector-curvature="0" />
    <path
       id="path3628"
       d="m 436,6008 c -4,-29 -10,-63 -13,-75 -6,-27 9,-30 31,-7 12,12 29,15 69,11 103,-9 202,-27 205,-37 2,-6 17,-10 33,-10 38,0 69,-16 69,-35 0,-8 4,-15 9,-15 4,0 11,27 15,60 4,33 11,60 16,60 6,0 10,9 10,20 0,27 -23,25 -35,-2 -8,-19 -18,-23 -50,-22 -63,1 -205,26 -205,36 0,4 -11,8 -24,8 -58,0 -86,12 -86,36 0,17 -6,24 -19,24 -15,0 -20,-10 -25,-52 z"
       inkscape:connector-curvature="0" />
    <path
       id="path3630"
       d="m 9698,6051 c -37,-8 -95,-64 -103,-100 -4,-17 -11,-33 -16,-36 -5,-4 -9,-15 -9,-25 0,-22 -51,-50 -90,-50 -15,0 -34,8 -43,18 -32,36 -15,129 27,148 30,14 34,38 5,29 -78,-22 -79,-23 -79,-86 0,-66 8,-91 43,-134 22,-27 31,-30 81,-30 53,0 58,2 91,39 19,21 41,60 50,85 8,25 29,59 45,75 25,23 36,27 64,22 36,-7 46,-24 46,-81 0,-35 -8,-49 -32,-58 -10,-3 -18,-11 -18,-17 0,-13 36,-13 61,0 39,21 16,168 -29,184 -50,18 -69,22 -94,17 z"
       inkscape:connector-curvature="0" />
    <path
       id="path3632"
       d="m 398,5830 c 8,-23 -17,-312 -28,-320 -4,-3 -10,-14 -14,-26 -5,-17 1,-23 44,-38 59,-21 74,-15 37,14 -30,24 -40,61 -29,110 9,40 -2,39 221,18 128,-12 161,-25 161,-63 0,-8 4,-15 9,-15 4,0 11,27 14,60 4,33 10,72 13,85 5,19 2,25 -9,25 -9,0 -17,-10 -19,-22 -3,-21 -8,-23 -58,-21 -111,3 -230,16 -230,24 0,5 -18,9 -40,9 -49,0 -57,14 -44,79 8,39 13,47 34,49 63,9 49,36 -22,46 -45,7 -47,6 -40,-14 z"
       inkscape:connector-curvature="0" />
    <path
       id="path3634"
       d="m 9559,5710 c -34,-18 -89,-78 -89,-98 0,-6 -6,-12 -12,-14 -9,-3 -13,-33 -13,-103 0,-70 4,-100 13,-102 6,-3 12,-12 12,-22 0,-24 33,-49 71,-53 46,-4 49,19 4,38 -63,26 -87,128 -48,211 19,40 81,83 121,83 12,0 22,5 22,10 0,6 20,10 45,10 25,0 45,-4 45,-9 0,-5 15,-12 33,-15 61,-11 97,-70 97,-155 0,-60 -18,-97 -52,-112 -16,-6 -28,-16 -28,-21 0,-15 94,2 108,20 23,30 6,222 -20,222 -4,0 -8,5 -8,11 0,21 -54,81 -91,100 -50,25 -159,25 -210,-1 z"
       inkscape:connector-curvature="0" />
    <path
       id="path3636"
       d="m 764,5423 c -8,-22 -22,-32 -68,-45 -31,-10 -65,-18 -76,-18 -10,0 -22,-4 -25,-10 -3,-5 -19,-10 -35,-10 -15,0 -30,-5 -32,-10 -2,-6 -41,-20 -87,-33 -124,-34 -120,-54 22,-102 48,-16 87,-32 87,-36 0,-4 43,-22 95,-40 79,-28 97,-38 108,-61 14,-34 37,-37 37,-5 0,12 3,39 6,60 6,33 4,37 -15,37 -12,0 -21,-6 -21,-15 0,-19 -6,-19 -69,2 -58,18 -64,30 -59,108 l 3,49 58,14 c 54,13 59,13 71,-3 23,-32 36,-7 36,71 0,53 -4,74 -13,74 -7,0 -17,-12 -23,-27 z"
       inkscape:connector-curvature="0" />
    <path
       id="path3638"
       d="m 9470,5195 c 0,-89 9,-106 30,-55 l 12,30 h 170 c 171,0 198,-5 198,-39 0,-6 5,-11 10,-11 6,0 10,33 10,80 0,44 -3,80 -6,80 -9,0 -34,-28 -34,-38 0,-13 -100,-22 -237,-22 h -115 l -11,30 c -19,50 -27,34 -27,-55 z"
       inkscape:connector-curvature="0" />
    <path
       id="path3640"
       d="m 9470,4975 c 0,-50 -4,-85 -10,-85 -6,0 -10,-31 -10,-73 v -73 l 33,-12 c 35,-13 67,-16 67,-7 0,3 -13,19 -30,35 -27,26 -30,35 -30,92 0,35 4,68 8,75 7,12 58,18 130,15 l 42,-2 v -47 c 0,-56 -6,-67 -40,-79 -23,-7 -22,-8 15,-15 22,-4 56,-8 75,-8 h 35 l -22,18 c -19,16 -23,29 -23,75 v 56 h 59 c 88,0 91,-3 91,-71 0,-46 -5,-64 -20,-79 -11,-11 -24,-20 -30,-20 -5,0 -10,-7 -10,-15 0,-11 12,-15 44,-15 h 43 l 7,92 c 9,131 8,208 -4,208 -5,0 -10,-5 -10,-11 0,-6 -6,-17 -14,-25 -19,-19 -176,-20 -176,-1 0,8 -4,7 -10,-3 -6,-10 -10,-11 -10,-2 0,8 -22,12 -74,12 -72,0 -106,13 -106,41 0,5 -4,9 -10,9 -6,0 -10,-35 -10,-85 z"
       inkscape:connector-curvature="0" />
    <path
       id="path3642"
       d="m 346,5033 c 5,-10 10,-64 12,-120 2,-57 7,-103 13,-103 5,0 9,-27 9,-59 0,-43 -4,-60 -15,-65 -29,-11 -14,-25 40,-37 30,-7 57,-10 60,-7 10,10 -6,36 -26,41 -24,6 -41,50 -37,96 l 3,36 133,3 c 77,1 132,7 132,12 0,6 20,10 45,10 39,0 45,-3 51,-24 5,-20 33,-45 38,-34 1,2 0,42 -2,91 -3,68 -7,87 -18,87 -8,0 -17,-13 -20,-29 -7,-35 -19,-37 -220,-47 l -141,-6 -7,36 c -10,52 2,103 25,109 39,10 19,27 -32,27 -45,0 -50,-2 -43,-17 z"
       inkscape:connector-curvature="0" />
    <path
       id="path3644"
       d="m 5110,4996 c 0,-8 -11,-24 -25,-37 -13,-13 -25,-30 -25,-37 0,-7 -11,-30 -25,-52 -14,-22 -25,-44 -25,-50 0,-5 -4,-10 -8,-10 -4,0 -25,-35 -47,-77 -22,-43 -46,-84 -54,-92 -7,-8 -21,-33 -31,-56 -10,-23 -24,-48 -32,-56 -8,-8 -29,-45 -47,-82 -18,-37 -36,-67 -40,-67 -5,0 -23,-30 -41,-67 -17,-38 -35,-70 -39,-73 -4,-3 -25,-39 -47,-80 -21,-41 -41,-77 -45,-80 -4,-3 -22,-34 -40,-70 -19,-36 -37,-66 -40,-68 -4,-2 -22,-33 -40,-70 -19,-37 -39,-71 -45,-77 -6,-5 -24,-37 -40,-70 -16,-33 -34,-64 -41,-70 -7,-5 -26,-38 -42,-72 -17,-33 -34,-63 -38,-65 -11,-4 -43,-67 -43,-82 0,-7 -11,-25 -24,-39 -14,-15 -39,-57 -57,-94 -18,-38 -36,-69 -40,-71 -5,-2 -23,-34 -41,-70 -18,-37 -36,-69 -41,-70 -4,-2 -23,-35 -42,-73 -20,-38 -40,-69 -45,-69 -6,0 -10,-8 -10,-17 0,-10 -9,-29 -20,-43 -11,-14 -20,-31 -20,-37 0,-7 -8,-21 -17,-31 -10,-10 -34,-50 -53,-87 -19,-38 -41,-75 -47,-83 -7,-7 -27,-43 -45,-80 -18,-37 -36,-69 -41,-70 -4,-2 -21,-31 -38,-65 -17,-34 -35,-65 -41,-68 -6,-4 -20,-29 -32,-57 -12,-27 -31,-63 -44,-79 -12,-16 -34,-54 -49,-84 -15,-30 -30,-56 -34,-59 -3,-3 -24,-39 -45,-80 -22,-41 -45,-81 -52,-89 -8,-8 -25,-38 -38,-67 -13,-29 -28,-54 -32,-56 -5,-1 -23,-32 -40,-68 -18,-35 -36,-67 -40,-70 -5,-3 -20,-27 -35,-54 -26,-47 -27,-50 -9,-66 10,-9 49,-32 87,-50 38,-18 76,-39 83,-47 7,-7 21,-13 31,-13 9,0 21,-4 27,-8 5,-5 36,-19 69,-32 33,-13 62,-27 65,-31 3,-4 48,-22 100,-40 52,-17 97,-34 100,-38 5,-7 93,-36 190,-63 25,-6 47,-15 50,-18 12,-14 298,-80 347,-80 13,0 23,-4 23,-8 0,-11 169,-38 355,-57 189,-20 721,-20 910,0 186,19 355,46 355,57 0,4 11,8 24,8 14,0 85,14 158,30 73,17 145,33 161,37 15,3 27,9 27,12 0,4 24,13 53,20 77,20 181,54 187,62 3,4 48,21 100,38 52,18 97,36 100,40 3,4 32,18 65,31 33,13 64,27 69,32 6,4 18,8 28,8 10,0 21,7 24,15 3,8 16,17 27,20 37,11 131,58 150,75 17,16 16,19 -10,66 -15,27 -30,50 -34,52 -3,1 -22,33 -40,70 -19,37 -37,69 -42,70 -4,2 -18,27 -31,56 -13,29 -30,59 -38,67 -7,8 -30,48 -52,89 -21,41 -41,77 -45,80 -7,6 -23,33 -54,93 -11,23 -24,44 -28,47 -11,8 -59,102 -59,116 0,7 -6,17 -14,21 -8,4 -28,36 -45,70 -17,33 -34,63 -39,65 -4,1 -22,33 -40,70 -18,37 -38,73 -45,81 -7,7 -28,43 -47,80 -19,37 -38,67 -41,67 -4,0 -14,17 -23,38 -16,39 -47,94 -57,102 -4,3 -20,33 -37,66 -17,34 -37,68 -44,75 -8,8 -28,44 -46,82 -18,37 -36,67 -40,67 -4,0 -22,32 -41,70 -18,39 -36,70 -40,70 -9,0 -71,123 -71,140 0,5 -4,10 -10,10 -5,0 -23,28 -40,63 -17,34 -36,67 -43,72 -7,6 -25,37 -41,70 -16,33 -34,65 -40,70 -7,6 -27,40 -45,77 -17,37 -36,68 -40,70 -5,2 -23,32 -41,68 -18,36 -36,67 -39,70 -4,3 -24,39 -45,80 -22,41 -42,77 -46,80 -4,3 -23,34 -41,70 -19,36 -37,66 -41,68 -4,2 -22,34 -40,70 -17,37 -37,72 -44,77 -7,6 -22,31 -32,56 -11,25 -26,52 -34,60 -7,8 -31,48 -52,89 -21,41 -41,77 -45,80 -7,6 -22,31 -54,93 -12,23 -29,51 -39,61 -10,11 -18,26 -18,33 0,7 -4,13 -10,13 -5,0 -10,-6 -10,-14 z m 430,-1478 c 0,-355 14,-617 34,-630 7,-5 6,-8 -4,-8 -10,0 -11,-3 -4,-8 6,-4 14,-45 17,-92 8,-98 20,-241 42,-490 8,-96 18,-218 21,-270 4,-52 10,-97 14,-100 4,-3 11,-50 14,-105 4,-55 9,-121 12,-147 l 6,-48 h -572 -573 l 6,68 c 4,37 9,110 13,162 4,52 10,97 14,100 4,3 10,50 14,105 3,55 11,145 16,200 18,189 38,426 46,543 4,50 10,92 15,92 13,0 19,131 25,563 l 6,417 h 419 419 z M 4163,1550 c 12,-14 17,-38 17,-80 0,-68 14,-78 35,-25 8,19 25,43 37,55 21,20 62,27 71,12 6,-8 -11,-254 -18,-260 -6,-7 -65,19 -65,28 0,5 4,10 10,12 5,2 12,29 16,61 6,49 5,57 -8,52 -8,-3 -28,-31 -44,-61 -24,-47 -32,-54 -54,-52 -24,3 -25,7 -30,80 -6,88 -15,106 -24,48 -3,-22 -10,-40 -15,-40 -5,0 -12,-13 -16,-30 -8,-38 -19,-44 -47,-29 -32,16 -32,16 -16,33 8,8 23,40 33,73 9,32 21,62 26,68 5,5 9,15 9,22 0,19 32,53 50,53 9,0 23,-9 33,-20 z m 1920,-32 c 4,-18 16,-73 27,-122 21,-96 18,-113 -23,-102 -21,5 -27,16 -41,78 -9,40 -22,92 -27,115 -13,50 -7,63 30,63 24,0 29,-5 34,-32 z m -121,-126 c 22,-118 20,-142 -11,-142 -22,0 -27,11 -37,83 -3,26 -10,47 -14,47 -7,0 -23,78 -25,115 0,12 47,24 58,15 4,-4 17,-57 29,-118 z m -126,96 c 4,-6 0,-16 -9,-23 -10,-7 -17,-22 -17,-33 0,-11 -4,-24 -10,-27 -23,-14 -10,-60 25,-90 19,-16 37,-42 41,-57 6,-26 4,-28 -23,-28 -30,0 -54,20 -66,53 -8,22 -27,13 -27,-14 0,-10 -4,-19 -10,-19 -5,0 -10,-7 -10,-15 0,-15 -46,-32 -57,-22 -3,3 4,34 15,68 24,74 19,94 -32,133 -49,37 -47,56 4,56 27,0 40,-4 40,-13 0,-19 37,-50 49,-42 6,3 11,16 11,28 0,29 11,44 35,50 32,8 33,8 41,-5 z m -1237,-18 c 20,-10 29,-49 15,-63 -4,-3 -22,0 -41,8 -78,33 -123,9 -123,-63 1,-69 18,-87 85,-86 43,1 55,-2 55,-14 0,-65 -161,-48 -197,22 -36,69 -11,168 51,200 34,18 119,16 155,-4 z m 150,-27 c 13,-11 22,-36 27,-72 3,-31 9,-60 12,-65 5,-10 31,32 32,52 0,7 5,18 10,25 6,7 18,23 29,37 16,21 22,23 43,13 22,-10 26,-20 31,-80 4,-37 7,-94 7,-125 0,-58 0,-58 -30,-58 h -30 v 82 c 0,74 -1,80 -15,62 -8,-10 -15,-27 -15,-36 0,-9 -6,-23 -13,-30 -7,-7 -18,-26 -25,-41 -16,-36 -46,-33 -50,6 -2,15 -8,27 -13,27 -5,0 -9,15 -9,33 0,17 -4,39 -10,47 -11,17 -12,15 -30,-72 -11,-55 -13,-58 -41,-58 h -30 l 7,53 c 4,28 11,60 15,69 5,9 9,28 9,42 0,14 4,26 9,26 5,0 11,18 15,40 7,45 30,53 65,23 z m 861,7 c 0,-15 -33,-80 -41,-80 -15,0 -18,-45 -3,-60 25,-26 64,-90 64,-105 0,-37 -74,0 -93,47 -7,17 -37,-18 -37,-43 0,-14 -44,-39 -68,-39 -7,0 5,52 24,102 18,45 18,47 -1,83 -11,21 -28,42 -37,49 -28,17 -22,36 11,36 20,0 36,-9 52,-30 13,-16 27,-30 30,-30 3,0 14,18 24,40 15,33 23,40 47,40 15,0 28,-4 28,-10 z m -236,-18 c 6,-10 -34,-95 -46,-100 -10,-5 -10,-42 0,-42 7,0 62,-100 62,-113 0,-22 -80,4 -80,26 0,7 -7,21 -15,31 -14,19 -16,18 -32,-22 -14,-38 -19,-42 -50,-42 -18,0 -33,3 -33,6 0,3 11,28 25,56 14,27 25,58 25,67 0,21 -27,79 -48,103 -13,16 -13,18 2,24 27,10 62,-4 74,-31 15,-33 27,-32 42,4 11,27 24,37 57,40 6,0 14,-3 17,-7 z m -312,-104 3,-103 28,3 c 34,4 57,-13 57,-39 0,-17 -8,-19 -80,-19 h -80 v 85 c 0,50 4,85 10,85 6,0 10,20 10,45 0,41 2,45 25,45 24,0 24,-1 27,-102 z"
       inkscape:connector-curvature="0" />
    <path
       id="path3646"
       d="m 4795,3748 c -3,-13 -4,-135 -3,-273 l 3,-250 323,-3 322,-2 v 275 275 h -50 -50 v -61 c 0,-80 -11,-91 -92,-87 l -63,3 -3,73 -3,72 h -59 c -67,0 -67,0 -72,-95 l -3,-50 -57,-3 -58,-3 v 60 c 0,88 -2,91 -71,91 -52,0 -59,-2 -64,-22 z"
       inkscape:connector-curvature="0" />
    <path
       id="path3648"
       d="m 4796,3132 c -7,-12 -14,-75 -27,-242 -6,-85 -15,-156 -20,-158 -5,-2 -9,-29 -9,-59 0,-31 -7,-126 -14,-212 -8,-86 -20,-221 -26,-301 -19,-246 -22,-275 -31,-278 -5,-2 -9,-39 -9,-83 v -79 h 159 159 l 4,243 3,243 28,29 c 15,16 27,33 27,37 0,13 78,29 107,22 24,-6 52,-30 93,-81 6,-7 10,-111 10,-253 v -240 h 165 165 v 64 c 0,35 -4,66 -9,68 -5,2 -12,41 -15,88 -4,47 -11,137 -16,200 -29,336 -40,480 -40,522 0,25 -4,48 -9,50 -5,2 -14,73 -20,158 -7,85 -14,169 -15,185 -2,17 -4,42 -5,58 l -1,27 h -324 c -179,0 -327,-3 -330,-8 z m 386,-239 c 16,-14 18,-34 18,-160 v -143 h -80 c -57,0 -80,4 -81,13 -5,86 3,273 13,285 29,35 94,38 130,5 z"
       inkscape:connector-curvature="0" />
    <path
       id="path3650"
       d="m 2485,4701 c -3,-2 -5,-125 -5,-273 v -268 h 320 c 249,0 320,3 320,13 3,108 -1,520 -5,527 -3,5 -24,8 -48,7 l -42,-3 -3,-72 -3,-72 h -74 -75 v 70 c 0,77 6,72 -78,74 -24,1 -46,-3 -49,-8 -3,-5 -6,-36 -7,-70 l -1,-61 h -60 -60 l -3,68 c -2,37 -6,67 -10,68 -25,4 -114,4 -117,0 z"
       inkscape:connector-curvature="0" />
    <path
       id="path3652"
       d="m 7125,4702 c -3,-3 -5,-126 -5,-274 v -268 h 319 c 282,0 320,2 325,16 3,9 6,130 6,269 0,277 4,261 -65,260 h -40 l -3,-73 -3,-72 h -74 -75 v 70 c 0,39 -3,70 -7,71 -38,4 -105,4 -113,-1 -5,-3 -10,-35 -12,-70 l -3,-65 h -60 -60 l -5,70 -5,70 -57,1 c -32,0 -60,-1 -63,-4 z"
       inkscape:connector-curvature="0" />
    <path
       id="path3654"
       d="m 9436,4624 c -4,-36 -5,-69 -2,-71 7,-7 36,23 36,37 0,9 22,11 88,5 48,-4 89,-11 92,-15 3,-4 29,-11 58,-15 28,-4 52,-10 52,-14 0,-4 -20,-15 -44,-25 -25,-10 -47,-24 -49,-31 -3,-6 -20,-19 -39,-29 -37,-18 -70,-38 -78,-46 -13,-14 -91,-60 -100,-60 -6,0 -13,-7 -16,-15 -3,-8 -14,-17 -25,-20 -38,-12 -20,-32 34,-38 128,-13 237,-31 237,-39 0,-4 14,-8 31,-8 38,0 69,-16 69,-35 0,-8 8,-15 19,-15 16,0 19,10 23,63 3,34 4,64 2,65 -1,2 -12,-6 -24,-18 -20,-20 -29,-22 -84,-16 -33,4 -91,9 -129,13 -69,6 -93,18 -60,30 10,4 27,15 38,26 11,10 37,27 58,38 20,11 37,23 37,28 0,4 25,20 56,36 31,16 58,34 61,42 3,7 12,13 19,13 28,0 64,32 64,56 0,13 5,24 10,24 6,0 10,11 10,25 0,32 -15,32 -43,1 l -22,-25 -100,15 c -223,31 -234,34 -237,57 -2,12 -10,23 -19,25 -13,2 -17,-10 -23,-64 z"
       inkscape:connector-curvature="0" />
    <path
       id="path3656"
       d="m 798,4618 c -2,-17 -11,-24 -33,-26 -16,-2 -32,-8 -35,-12 -3,-5 -48,-13 -100,-19 -52,-6 -118,-13 -147,-17 -50,-6 -53,-5 -64,20 -7,14 -16,26 -21,26 -7,0 -5,-39 6,-134 4,-29 24,-31 28,-4 3,21 10,24 78,31 41,5 77,12 80,16 3,4 41,11 85,15 44,3 89,7 99,9 12,1 24,-7 32,-21 6,-13 15,-23 20,-22 9,1 9,7 -1,103 -6,57 -21,76 -27,35 z"
       inkscape:connector-curvature="0" />
    <path
       id="path3658"
       d="m 751,4440 c -15,-9 1,-26 31,-34 33,-8 44,-26 52,-91 10,-74 1,-81 -134,-104 -211,-35 -203,-34 -220,-12 -11,15 -19,18 -30,11 -10,-7 -12,-12 -4,-17 6,-5 14,-30 18,-58 4,-27 9,-58 12,-67 8,-28 24,-21 24,11 0,28 3,30 58,41 31,6 75,15 97,20 22,5 68,12 103,16 34,3 62,11 62,15 0,5 7,9 16,9 18,0 44,-23 44,-39 0,-6 5,-11 10,-11 13,0 13,6 -2,93 -6,40 -15,74 -19,77 -5,3 -12,35 -16,70 l -8,65 -42,6 c -24,3 -47,3 -52,-1 z"
       inkscape:connector-curvature="0" />
    <path
       id="path3660"
       d="m 9716,4131 c -4,-5 -1,-13 4,-16 6,-4 15,-18 20,-31 12,-30 -6,-124 -23,-124 -7,0 -49,9 -95,20 -46,11 -92,20 -103,20 -10,0 -19,4 -19,10 0,5 -12,12 -27,15 -105,23 -113,27 -113,64 0,54 -16,26 -35,-62 -18,-83 -14,-105 11,-69 8,12 22,22 30,22 30,0 239,-53 242,-62 2,-4 14,-8 27,-8 33,0 75,-20 75,-37 0,-7 -4,-13 -9,-13 -5,0 -13,-15 -16,-32 -10,-43 -22,-58 -51,-58 -35,0 -30,-27 6,-35 16,-4 32,-11 35,-16 14,-22 35,-8 35,24 0,36 23,144 60,285 6,25 17,42 25,42 21,0 19,29 -2,36 -10,3 -30,12 -45,20 -16,8 -29,10 -32,5 z"
       inkscape:connector-curvature="0" />
    <path
       id="path3662"
       d="m 898,4058 c -2,-15 -13,-24 -38,-31 -19,-5 -37,-12 -40,-16 -6,-8 -188,-52 -244,-59 -30,-3 -43,0 -53,14 -23,31 -25,7 -7,-70 11,-47 23,-76 31,-76 7,0 13,11 13,24 0,29 15,42 58,50 17,3 47,9 65,12 17,4 34,10 37,14 3,4 46,17 95,28 89,21 90,21 107,2 19,-24 38,-26 38,-5 0,8 -4,15 -9,15 -5,0 -12,14 -15,30 -3,17 -9,44 -12,60 -7,35 -21,40 -26,8 z"
       inkscape:connector-curvature="0" />
    <path
       id="path3664"
       d="m 2467,4013 c -4,-32 -9,-106 -13,-165 -4,-60 -10,-108 -14,-108 -4,0 -11,-48 -14,-107 -4,-60 -11,-153 -16,-208 -17,-190 -29,-331 -41,-487 -6,-87 -16,-158 -20,-158 -5,0 -9,-27 -9,-60 v -60 h 165 165 v 240 c 0,178 3,245 13,257 49,61 66,73 107,73 82,0 130,-43 130,-117 0,-20 5,-33 13,-33 8,0 7,-4 -3,-10 -10,-6 -11,-10 -2,-10 9,0 12,-31 12,-120 0,-73 -4,-120 -10,-120 -14,0 -12,-37 3,-43 9,-4 9,-8 -2,-15 -11,-8 -11,-10 0,-15 10,-4 10,-6 2,-6 -7,-1 -13,-7 -13,-15 0,-8 6,-17 13,-19 9,-4 8,-8 -3,-16 -31,-23 16,-31 178,-31 137,0 162,2 162,15 0,8 -4,15 -9,15 -4,0 -11,39 -14,88 -4,48 -11,134 -16,192 -5,58 -17,206 -26,330 -10,124 -21,227 -25,230 -4,3 -10,43 -13,90 -8,130 -26,360 -32,408 l -6,42 h -328 -328 z m 366,-155 c 42,-22 46,-37 47,-180 v -138 h -80 -80 v 138 c 0,115 3,140 18,158 27,34 59,41 95,22 z"
       inkscape:connector-curvature="0" />
    <path
       id="path3666"
       d="m 7117,4063 c -3,-5 -10,-84 -16,-178 -7,-93 -17,-200 -22,-237 -5,-37 -9,-94 -9,-127 0,-32 -4,-61 -9,-63 -5,-1 -16,-104 -26,-228 -24,-318 -33,-425 -41,-502 l -7,-68 h 167 166 v 238 c 1,202 3,242 18,272 21,43 53,60 113,60 48,0 99,-28 99,-55 0,-7 6,-15 13,-17 9,-4 13,-65 15,-251 l 3,-247 h 163 163 l -5,98 c -3,53 -8,99 -12,102 -4,3 -13,73 -20,155 -6,83 -18,227 -26,320 -8,94 -19,238 -25,320 -6,83 -14,152 -19,155 -4,3 -11,61 -16,130 l -9,125 -327,3 c -180,1 -329,-1 -331,-5 z m 350,-199 c 46,-13 63,-61 63,-182 0,-61 -3,-117 -6,-126 -5,-13 -22,-16 -85,-16 h -79 v 128 c 0,140 9,173 50,190 32,13 31,13 57,6 z"
       inkscape:connector-curvature="0" />
    <path
       id="path3668"
       d="m 9250,3784 c 0,-21 -32,-118 -40,-124 -4,-3 -11,-21 -15,-40 -4,-19 -14,-48 -22,-63 -18,-35 -12,-43 16,-25 20,12 25,10 54,-23 18,-20 40,-39 50,-43 21,-7 22,-39 2,-60 -9,-8 -21,-29 -26,-46 -10,-28 -14,-30 -66,-30 -57,0 -83,14 -83,45 0,36 -24,6 -48,-60 -13,-39 -28,-72 -32,-75 -8,-6 -70,-131 -70,-142 0,-5 7,-8 15,-8 8,0 15,7 15,15 0,19 49,21 56,2 2,-7 25,-22 49,-32 51,-23 54,-31 22,-61 -18,-17 -39,-22 -107,-26 -97,-6 -154,-32 -165,-75 -7,-28 2,-44 13,-26 4,7 38,18 75,25 37,7 67,16 67,20 0,5 23,8 50,8 49,0 50,-1 50,-29 0,-16 7,-36 15,-45 8,-8 15,-19 15,-24 0,-17 49,-42 82,-42 48,0 89,30 118,86 14,27 30,54 36,60 20,22 36,73 29,91 -6,17 -7,17 -16,1 -6,-10 -17,-18 -25,-18 -15,0 -165,70 -174,81 -3,3 -31,19 -63,35 -75,36 -84,52 -56,105 l 21,42 146,-8 c 81,-4 149,-11 150,-16 2,-5 33,-9 68,-9 60,0 64,1 64,23 0,23 -3,27 -177,194 -102,98 -113,111 -113,143 0,19 7,43 14,53 14,19 62,23 68,6 2,-5 19,-14 38,-19 19,-5 60,-17 90,-26 30,-9 67,-18 83,-21 15,-3 27,-9 27,-14 0,-5 11,-14 25,-19 15,-6 25,-17 25,-30 0,-11 6,-20 13,-20 16,0 58,133 47,149 -4,7 -11,1 -19,-15 -9,-20 -17,-25 -34,-21 -82,20 -102,27 -105,36 -2,6 -11,11 -20,11 -16,0 -61,13 -159,48 -37,13 -43,19 -43,43 0,19 -5,29 -15,29 -8,0 -15,-7 -15,-16 z m -28,-764 c 10,0 18,-5 18,-10 0,-6 20,-19 44,-30 55,-23 58,-29 40,-66 -37,-76 -174,-52 -174,31 0,43 29,100 43,86 6,-6 19,-11 29,-11 z"
       inkscape:connector-curvature="0" />
    <path
       id="path3670"
       d="m 593,3777 c -46,-11 -52,-24 -29,-60 7,-12 22,-52 32,-89 10,-38 22,-68 25,-68 12,0 49,-137 43,-155 -6,-14 1,-16 47,-13 51,3 73,19 35,26 -33,7 -67,51 -80,104 -6,26 -4,28 49,43 30,9 55,20 55,25 0,4 12,10 28,13 15,3 52,13 82,22 112,34 118,34 141,14 28,-24 42,-24 35,-1 -16,58 -20,68 -28,73 -6,4 -13,21 -17,39 -3,19 -12,35 -19,38 -8,2 -10,-5 -6,-25 7,-33 -4,-40 -101,-69 -33,-9 -62,-20 -65,-24 -3,-4 -32,-15 -65,-24 -33,-10 -71,-22 -85,-28 -17,-7 -26,-6 -28,1 -2,6 -9,17 -16,24 -7,7 -15,26 -19,44 -5,25 -1,37 19,58 13,14 22,31 19,36 -4,5 -7,8 -8,8 -1,-1 -21,-7 -44,-12 z"
       inkscape:connector-curvature="0" />
    <path
       id="path3672"
       d="m 1010,3403 c -60,-22 -146,-57 -150,-62 -8,-9 -52,-29 -80,-35 -15,-3 -31,1 -42,11 -10,9 -20,14 -23,12 -9,-10 44,-124 59,-127 9,-2 16,1 16,7 0,6 -4,11 -10,11 -5,0 -10,7 -10,15 0,8 6,15 14,15 8,0 16,6 19,13 5,13 43,34 105,59 17,7 32,16 32,19 0,4 29,15 64,24 56,15 68,16 96,4 61,-27 91,-128 54,-184 -9,-13 -41,-37 -72,-52 -32,-16 -59,-30 -62,-33 -5,-5 -19,-12 -94,-44 -35,-15 -40,-16 -63,-1 -29,20 -42,12 -25,-15 7,-11 12,-26 12,-34 0,-8 7,-21 15,-30 8,-8 20,-27 27,-43 l 12,-28 4,38 c 3,30 9,41 30,50 15,6 29,14 32,17 6,6 38,21 116,53 66,27 121,75 136,119 10,29 -6,128 -22,128 -4,0 -13,13 -20,30 -20,48 -114,83 -170,63 z"
       inkscape:connector-curvature="0" />
    <path
       id="path3674"
       d="m 1341,2911 c -51,-9 -52,-31 -2,-31 38,0 43,-3 71,-47 16,-27 30,-54 30,-60 0,-7 5,-13 10,-13 6,0 10,-7 10,-15 0,-8 -3,-15 -8,-15 -4,0 -23,-14 -41,-31 -31,-28 -70,-49 -91,-49 -5,0 -11,8 -15,19 -3,10 -15,29 -26,42 l -20,23 22,17 c 14,10 20,22 16,33 -9,22 -20,20 -46,-10 -12,-14 -35,-30 -52,-36 -38,-13 -38,-32 1,-25 24,5 33,1 49,-21 12,-15 25,-32 31,-39 5,-7 10,-15 10,-18 0,-11 -41,-45 -84,-69 l -45,-25 -21,28 c -11,16 -20,32 -20,36 0,3 -7,13 -15,21 -20,21 -19,61 3,73 15,9 15,12 2,21 -11,8 -22,3 -43,-21 l -28,-30 21,-29 c 11,-15 20,-32 20,-37 0,-4 11,-21 25,-37 14,-16 37,-53 52,-83 30,-58 53,-69 53,-25 0,37 45,77 140,125 14,6 32,20 42,29 29,29 99,60 122,54 24,-6 46,-43 46,-76 0,-11 -9,-29 -20,-40 -11,-11 -20,-22 -20,-24 0,-9 -65,-111 -82,-127 -9,-10 -24,-33 -33,-52 -9,-19 -24,-43 -33,-54 -9,-10 -23,-29 -30,-41 -11,-20 -10,-23 10,-31 21,-8 34,-5 144,29 17,6 40,10 51,10 12,0 23,5 25,10 4,12 148,50 189,50 14,0 30,-5 37,-12 18,-18 24,-4 10,23 -16,28 -62,79 -73,79 -4,0 -5,-9 -2,-21 4,-15 0,-23 -14,-26 -10,-3 -19,-8 -19,-12 0,-4 -20,-13 -45,-20 -36,-11 -48,-11 -60,-1 -8,7 -15,17 -15,22 0,5 -9,21 -20,35 -23,30 -26,56 -6,72 8,7 22,27 31,46 18,39 26,42 48,20 13,-12 16,-12 21,0 3,8 -7,25 -24,39 -17,14 -30,27 -30,30 0,10 -66,111 -87,134 -13,14 -23,30 -23,37 0,7 -11,24 -25,39 -14,15 -25,32 -25,38 0,14 -49,78 -58,77 -4,-1 -22,-4 -41,-8 z"
       inkscape:connector-curvature="0" />
    <path
       id="path3676"
       d="m 8799,2792 c -17,-8 -79,-75 -79,-87 0,-3 -7,-13 -15,-21 -20,-21 -20,-112 0,-133 8,-9 27,-31 41,-48 14,-18 31,-33 37,-33 7,0 30,-16 51,-35 22,-19 43,-35 48,-35 16,0 68,-43 68,-56 0,-7 6,-15 13,-17 10,-4 10,-6 0,-6 -17,-1 -17,-31 0,-31 8,0 24,20 36,45 12,25 30,49 39,54 9,5 13,13 9,17 -4,5 -17,3 -27,-4 -11,-7 -25,-12 -33,-12 -13,0 -88,38 -97,49 -8,10 -100,71 -108,71 -4,0 -17,16 -29,35 -55,84 -2,194 93,195 31,0 134,-46 134,-59 0,-4 23,-20 50,-35 67,-37 91,-63 84,-93 -9,-35 17,-29 41,10 34,54 49,87 42,93 -4,4 -13,1 -22,-6 -19,-15 -70,3 -85,30 -5,10 -29,27 -52,39 -48,23 -80,43 -88,52 -21,26 -111,38 -151,21 z"
       inkscape:connector-curvature="0" />
    <path
       id="path3678"
       d="m 8565,2468 c -15,-18 -35,-41 -43,-51 -18,-21 -9,-35 12,-18 22,18 44,7 109,-54 32,-30 62,-55 66,-55 4,0 18,-14 30,-31 l 23,-31 -33,7 c -76,14 -134,30 -139,36 -9,12 -160,46 -166,38 -5,-9 24,-80 37,-89 7,-5 30,-66 71,-187 6,-18 15,-33 20,-33 4,0 8,-4 8,-10 0,-20 -21,-9 -57,30 -21,22 -42,40 -48,40 -5,0 -32,23 -59,50 -38,40 -47,56 -43,76 5,30 -12,44 -20,16 -2,-11 -22,-34 -44,-52 -21,-17 -39,-40 -39,-50 0,-23 4,-24 29,-8 16,10 25,7 54,-15 20,-15 40,-27 46,-27 5,0 17,-10 25,-21 8,-12 32,-34 53,-48 21,-15 58,-46 83,-69 40,-39 43,-45 31,-63 -23,-37 -1,-34 34,4 39,42 42,52 20,61 -8,3 -15,14 -15,24 0,10 -4,22 -9,28 -5,5 -16,33 -26,62 -9,28 -20,52 -25,52 -9,0 -55,139 -48,145 7,7 153,-26 156,-36 2,-5 14,-9 26,-9 24,0 110,-25 138,-41 14,-7 25,-1 53,26 46,46 45,58 -3,50 -37,-6 -39,-5 -160,115 -105,104 -121,123 -112,140 23,42 3,41 -35,-2 z"
       inkscape:connector-curvature="0" />
    <path
       id="path3680"
       d="m 1796,2283 c -18,-5 -65,-42 -55,-44 2,0 33,-1 68,-3 55,-2 67,-6 85,-28 11,-14 30,-36 41,-49 28,-33 29,-147 2,-174 -10,-10 -22,-28 -27,-40 -10,-26 -92,-75 -125,-75 -13,0 -26,-6 -28,-12 -4,-10 -6,-10 -6,0 -1,7 -14,12 -33,12 -40,0 -112,54 -127,96 -14,38 -14,81 -1,89 14,9 12,25 -2,25 -32,-1 -91,-80 -60,-80 4,0 22,-25 40,-55 18,-30 39,-55 45,-55 7,0 21,-11 31,-25 18,-24 101,-55 148,-55 39,0 98,20 119,41 10,10 22,19 25,19 17,0 54,59 64,101 13,51 5,129 -15,169 -20,38 -125,140 -149,144 -11,2 -30,2 -40,-1 z"
       inkscape:connector-curvature="0" />
    <path
       id="path3682"
       d="m 2126,1982 c -3,-6 -2,-13 4,-17 20,-12 9,-44 -32,-90 -103,-115 -207,-215 -213,-206 -8,13 -45,15 -45,2 0,-5 12,-17 28,-27 15,-9 39,-30 54,-46 14,-15 34,-28 44,-28 14,0 15,3 6,12 -30,30 -17,51 129,206 32,34 59,66 59,70 0,17 44,30 62,18 31,-19 34,5 3,30 -16,14 -44,38 -61,55 -19,19 -34,27 -38,21 z"
       inkscape:connector-curvature="0" />
    <path
       id="path3684"
       d="m 8065,1934 c -49,-46 -50,-46 -19,-41 35,7 43,-4 65,-81 12,-41 11,-44 -16,-72 -16,-17 -35,-30 -42,-30 -8,0 -16,-6 -19,-14 -5,-12 -9,-11 -25,5 -10,10 -34,25 -54,33 -31,14 -34,18 -29,45 4,17 3,31 -2,31 -10,0 -114,-96 -114,-105 0,-3 15,-3 33,0 23,5 39,2 48,-8 9,-8 44,-29 79,-46 36,-18 67,-36 70,-40 3,-5 33,-23 68,-40 34,-17 62,-35 62,-40 0,-5 14,-14 31,-21 45,-19 57,-3 40,57 -6,26 -16,50 -20,53 -7,5 -81,227 -81,243 0,5 -7,15 -15,23 -8,9 -15,26 -15,40 0,14 7,27 15,30 8,4 15,10 15,15 0,20 -28,6 -75,-37 z"
       inkscape:connector-curvature="0" />
    <path
       id="path3686"
       d="m 2238,1819 c -16,-11 -28,-27 -28,-35 0,-16 17,-19 22,-4 2,5 17,12 35,16 24,5 35,2 49,-15 10,-12 23,-21 29,-21 17,0 55,-44 55,-64 0,-10 -13,-31 -30,-48 -16,-16 -30,-32 -30,-35 0,-7 -57,-79 -93,-118 -16,-16 -33,-41 -38,-54 -8,-20 -14,-22 -44,-17 -19,4 -35,3 -35,-2 0,-8 54,-52 65,-52 3,0 17,-12 30,-27 13,-16 27,-25 31,-20 4,4 2,13 -4,19 -20,20 -14,56 13,74 14,9 25,21 25,28 0,6 15,27 33,47 52,58 97,117 97,128 0,15 37,33 63,31 46,-4 52,0 27,17 -14,9 -31,25 -38,35 -7,10 -19,18 -25,18 -7,0 -28,16 -47,35 -40,40 -105,85 -123,85 -7,0 -24,-10 -39,-21 z"
       inkscape:connector-curvature="0" />
    <path
       id="path3688"
       d="m 7664,1615 c -4,-8 -12,-15 -19,-15 -17,0 -75,-48 -75,-62 0,-5 -7,-16 -15,-24 -9,-9 -15,-34 -15,-59 0,-25 6,-50 15,-59 8,-8 15,-19 15,-25 0,-11 40,-77 64,-103 8,-9 26,-38 41,-64 23,-41 25,-51 14,-71 -13,-24 -4,-47 10,-25 8,14 65,49 94,58 27,10 20,27 -10,21 -32,-6 -53,1 -53,17 0,6 -9,17 -20,24 -11,6 -29,30 -40,52 -11,22 -25,40 -31,40 -15,0 -59,106 -59,143 0,24 10,44 34,70 31,34 38,37 88,37 48,0 57,-4 85,-33 17,-18 45,-56 63,-85 17,-29 35,-52 39,-52 4,0 17,-19 30,-42 15,-28 19,-44 11,-52 -11,-11 -14,-46 -4,-46 4,0 17,10 29,23 12,12 41,33 64,47 22,13 41,28 41,32 0,13 -38,9 -42,-4 -5,-15 -64,46 -85,87 -8,17 -24,39 -34,50 -11,11 -30,35 -42,54 -12,19 -31,39 -42,45 -11,6 -24,17 -28,24 -12,18 -116,16 -123,-3 z"
       inkscape:connector-curvature="0" />
    <path
       id="path3690"
       d="m 2523,1560 c -43,-17 -62,-101 -38,-162 5,-13 -1,-18 -27,-23 -63,-12 -88,-95 -48,-159 12,-20 44,-45 84,-66 36,-18 67,-39 70,-47 7,-17 46,-17 46,1 0,8 -7,16 -15,20 -21,7 -19,32 4,53 10,10 26,32 35,48 23,43 38,64 64,93 12,14 22,31 22,37 0,24 57,75 84,75 23,0 25,3 17,18 -5,10 -31,29 -56,42 -26,13 -50,30 -52,38 -13,33 -135,54 -190,32 z m 127,-27 c 0,-5 14,-16 30,-25 18,-10 30,-25 30,-37 0,-25 -20,-71 -31,-71 -5,0 -16,-15 -25,-32 -9,-18 -18,-34 -19,-36 -1,-2 -14,0 -28,3 -32,8 -67,65 -67,108 0,44 45,97 83,97 15,0 27,-3 27,-7 z m -82,-210 c 47,-21 49,-23 37,-31 -12,-9 -59,-81 -68,-104 -10,-28 -32,-21 -61,16 -33,43 -33,80 -1,111 29,29 44,31 93,8 z"
       inkscape:connector-curvature="0" />
    <path
       id="path3692"
       d="m 7280,1361 c 0,-5 -15,-12 -32,-16 -18,-4 -50,-18 -70,-31 -21,-13 -41,-24 -45,-25 -5,0 -18,-13 -31,-29 l -22,-29 26,-48 c 15,-26 31,-49 35,-51 5,-2 2,-10 -6,-19 -8,-8 -15,-19 -15,-24 0,-16 40,-9 60,11 11,11 35,26 55,34 19,8 35,20 35,25 0,14 -16,14 -42,0 -25,-13 -39,-1 -61,53 -15,35 -14,38 7,62 39,46 126,59 194,30 36,-16 92,-79 92,-103 0,-6 4,-11 9,-11 18,0 33,-70 26,-119 -5,-41 -12,-52 -48,-79 -22,-18 -45,-32 -50,-32 -4,0 -15,-7 -23,-15 -22,-22 -76,-19 -97,5 -9,11 -27,20 -39,20 -13,0 -18,-4 -12,-8 5,-4 20,-24 33,-44 12,-21 23,-38 24,-38 16,0 146,55 160,68 58,53 74,74 91,121 41,116 -22,255 -126,278 -16,3 -28,9 -28,14 0,5 -22,9 -50,9 -27,0 -50,-4 -50,-9 z"
       inkscape:connector-curvature="0" />
    <path
       id="path3694"
       d="m 2939,1341 c -53,-12 -95,-52 -128,-124 -18,-38 -37,-75 -42,-81 -5,-6 -20,-27 -32,-46 -19,-28 -29,-34 -50,-32 -50,5 -31,-24 36,-55 64,-31 92,-30 54,1 -19,15 -26,28 -21,39 3,9 9,17 13,17 3,0 12,15 19,33 22,54 56,121 70,135 7,8 24,29 38,48 24,31 31,34 81,34 48,0 57,-3 84,-32 23,-26 29,-41 29,-79 0,-48 -42,-163 -73,-199 -8,-10 -23,-34 -32,-54 -15,-32 -20,-35 -47,-29 -42,8 -33,-18 10,-31 18,-5 32,-13 32,-17 0,-10 69,-43 76,-36 3,3 -1,16 -10,29 -13,21 -13,28 8,76 13,29 29,61 37,70 21,25 57,114 65,159 10,62 -24,127 -79,151 -50,22 -102,31 -138,23 z"
       inkscape:connector-curvature="0" />
    <path
       id="path3696"
       d="m 6988,1202 c -1,-4 -25,-15 -53,-24 -55,-17 -78,-45 -28,-34 28,7 31,4 47,-39 10,-25 21,-45 26,-45 4,0 10,-12 13,-27 3,-16 10,-44 16,-63 5,-19 13,-46 17,-60 l 7,-25 -25,23 c -13,12 -30,22 -36,22 -7,0 -12,6 -12,13 -1,6 -12,21 -27,32 -14,11 -54,49 -90,84 -47,47 -67,61 -73,52 -8,-14 -26,-268 -21,-313 3,-39 -22,-36 -37,5 -7,17 -22,59 -34,92 -12,33 -24,62 -27,65 -13,10 -29,57 -23,67 4,5 16,13 26,17 13,4 16,10 10,16 -10,10 -92,-15 -104,-31 -3,-3 -15,-9 -27,-13 -30,-10 -29,-26 1,-26 29,0 56,-24 56,-49 0,-9 4,-21 9,-26 4,-6 16,-34 27,-62 10,-29 22,-53 26,-53 4,0 8,-6 8,-12 0,-7 7,-26 15,-41 24,-47 30,-96 11,-103 -9,-3 -16,-12 -16,-20 0,-18 36,-18 43,0 3,8 16,16 29,18 22,3 23,7 30,133 11,197 13,225 21,225 4,0 11,0 15,0 5,0 29,-19 53,-42 25,-24 74,-68 108,-98 35,-30 67,-65 72,-78 7,-18 14,-22 32,-16 12,4 24,10 27,15 3,4 19,13 35,20 l 30,12 -34,6 c -30,5 -36,12 -49,51 -8,25 -19,48 -24,51 -5,3 -13,21 -18,40 -5,19 -18,72 -31,118 -20,78 -21,85 -6,96 10,7 17,17 17,24 0,12 -27,15 -32,3 z"
       inkscape:connector-curvature="0" />
    <path
       id="path3698"
       d="m 3414,1124 c 3,-9 6,-18 6,-20 0,-2 7,-4 16,-4 13,0 15,-7 9,-37 -4,-21 -10,-40 -14,-43 -11,-7 -36,-66 -56,-130 -10,-30 -23,-60 -30,-66 -8,-5 -17,-22 -20,-37 -9,-35 -17,-39 -48,-24 -29,14 -57,55 -57,87 0,31 28,80 46,80 8,0 17,7 20,15 4,9 19,15 40,15 49,0 42,17 -11,25 -50,7 -115,-9 -115,-29 0,-6 -9,-19 -20,-29 -14,-12 -20,-29 -20,-60 0,-60 44,-108 124,-136 33,-11 62,-25 65,-29 3,-5 18,-12 34,-16 31,-7 38,13 12,34 -16,14 -12,65 6,85 5,5 9,17 9,27 0,9 6,21 13,25 13,9 37,64 44,106 3,15 9,30 14,33 5,3 9,14 9,24 0,22 36,45 64,41 29,-4 14,21 -20,32 -16,6 -31,13 -34,16 -8,10 -60,31 -77,31 -10,0 -13,-6 -9,-16 z"
       inkscape:connector-curvature="0" />
    <path
       id="path3700"
       d="m 3620,1053 c 0,-5 7,-18 15,-29 12,-19 11,-31 -13,-110 -14,-49 -32,-95 -39,-102 -7,-7 -13,-21 -13,-30 0,-19 -21,-80 -33,-99 -5,-7 -23,-13 -40,-13 -30,-1 -31,-1 -13,-15 11,-8 30,-15 42,-15 13,0 27,-6 31,-13 12,-20 73,-30 73,-13 0,7 -6,19 -14,25 -15,13 -13,24 23,145 11,38 24,72 28,75 5,3 17,33 28,66 17,52 24,60 48,63 34,4 35,18 1,26 -15,4 -33,14 -41,21 -8,8 -23,15 -33,15 -10,0 -25,3 -34,6 -9,3 -16,2 -16,-3 z"
       inkscape:connector-curvature="0" />
    <path
       id="path3702"
       d="m 6375,976 c -44,-11 -81,-24 -83,-28 -2,-4 -20,-10 -40,-13 -80,-14 -92,-23 -92,-72 0,-53 18,-54 35,-3 11,32 17,36 76,51 41,11 70,13 81,8 15,-8 38,-65 38,-96 0,-7 5,-13 10,-13 6,0 10,-11 10,-24 0,-21 -7,-26 -50,-36 -45,-11 -53,-10 -71,5 -27,26 -31,15 -16,-44 15,-57 30,-71 35,-30 2,21 11,29 41,38 61,18 78,15 84,-16 3,-16 10,-48 15,-73 12,-52 10,-54 -63,-70 -44,-9 -52,-8 -77,10 -15,11 -30,20 -33,20 -10,0 -5,-31 10,-59 l 14,-28 68,15 c 37,9 70,19 73,23 3,4 34,14 69,23 36,9 67,18 68,20 2,2 -9,8 -25,14 -23,8 -31,19 -45,71 -9,33 -17,68 -17,76 0,8 -4,15 -8,15 -5,0 -14,26 -21,58 -7,31 -17,67 -22,80 -14,36 -11,60 11,72 19,10 28,31 13,29 -5,-1 -44,-11 -88,-23 z"
       inkscape:connector-curvature="0" />
    <path
       id="path3704"
       d="m 3797,957 c -27,-57 -21,-72 16,-39 34,31 167,13 181,-24 3,-8 -2,-46 -12,-84 l -17,-69 -40,6 c -50,7 -65,19 -65,49 0,38 -28,29 -39,-13 -27,-104 -27,-109 9,-73 16,16 28,19 63,14 23,-4 46,-10 51,-15 13,-11 -10,-116 -29,-136 -12,-12 -26,-14 -58,-9 -56,9 -87,31 -87,61 0,19 -5,25 -21,25 -18,0 -20,-5 -17,-42 3,-40 5,-43 43,-50 21,-5 42,-12 45,-16 10,-13 175,-50 189,-42 11,6 9,9 -7,14 -14,5 -22,16 -22,29 0,34 23,137 31,137 4,0 12,24 18,53 6,28 19,76 28,105 15,48 18,52 47,52 50,0 110,-79 133,-177 3,-13 9,-23 14,-23 5,0 9,-7 9,-15 0,-8 -7,-15 -15,-15 -9,0 -32,-16 -52,-36 -47,-48 -52,-102 -10,-134 15,-12 33,-27 40,-35 24,-23 227,-54 227,-34 0,6 -9,13 -20,16 -15,4 -20,14 -20,39 0,19 3,34 8,34 4,0 16,62 26,138 10,75 23,143 29,150 5,6 20,12 33,12 50,0 21,17 -53,32 -78,14 -101,9 -67,-16 15,-12 16,-21 8,-82 -8,-61 -12,-69 -32,-72 -34,-5 -47,11 -66,78 -10,33 -28,72 -42,87 -13,14 -24,29 -24,33 0,13 -54,31 -153,51 -56,11 -104,23 -107,28 -3,5 -27,14 -55,20 -105,26 -100,26 -118,-12 z m 573,-350 c 0,-19 -5,-59 -11,-90 -11,-51 -14,-57 -37,-57 -32,0 -89,36 -97,61 -9,29 2,68 28,96 17,17 33,23 70,23 47,0 47,0 47,-33 z"
       inkscape:connector-curvature="0" />
    <path
       id="path3706"
       d="m 6033,888 c -37,-6 -64,-15 -67,-24 -4,-10 3,-14 25,-14 36,0 43,-15 59,-129 7,-44 16,-81 21,-81 5,0 9,-18 9,-40 0,-22 -3,-40 -8,-40 -4,0 -25,15 -47,34 -96,83 -113,96 -123,96 -5,0 -12,6 -15,13 -3,7 -24,26 -48,42 -24,17 -54,42 -67,58 -13,15 -32,27 -43,27 -16,0 -19,-5 -15,-32 2,-18 8,-58 12,-88 4,-30 11,-57 15,-60 7,-5 30,-143 33,-195 1,-12 -8,-24 -21,-30 -42,-18 -24,-28 39,-21 64,8 114,25 73,26 -27,0 -52,30 -63,77 -15,61 -35,190 -31,202 4,11 42,-15 101,-71 16,-16 32,-28 35,-28 6,0 80,-58 103,-80 9,-9 32,-28 51,-43 31,-24 42,-26 82,-21 53,8 67,34 18,34 -39,0 -44,16 -73,251 -11,87 -10,98 5,114 18,17 23,36 10,34 -5,-1 -36,-6 -70,-11 z"
       inkscape:connector-curvature="0" />
    <path
       id="path3708"
       d="m 4800,803 c -18,-7 -56,-47 -70,-73 -14,-25 -13,-66 3,-92 14,-25 78,-88 90,-88 18,0 66,-67 67,-92 0,-43 -10,-57 -46,-64 -27,-5 -42,-1 -69,17 -19,13 -35,32 -35,42 0,9 -4,17 -10,17 -5,0 -10,-20 -10,-45 0,-38 3,-45 20,-45 11,0 20,-4 20,-10 0,-13 107,-13 123,0 7,6 22,18 35,28 32,24 39,82 17,132 -10,22 -25,42 -35,45 -9,3 -40,27 -68,54 -40,37 -52,54 -52,78 0,30 26,63 48,63 7,0 12,5 12,10 0,6 7,10 15,10 8,0 15,-4 15,-10 0,-5 11,-10 24,-10 27,0 66,-42 66,-71 0,-11 5,-19 10,-19 15,0 12,83 -3,104 -10,14 -30,19 -83,22 -38,2 -76,1 -84,-3 z"
       inkscape:connector-curvature="0" />
    <path
       id="path3710"
       d="m 5398,803 c -34,-3 -48,-8 -48,-19 0,-7 8,-14 18,-14 40,0 48,-30 55,-188 4,-83 8,-157 9,-164 2,-9 -16,-14 -65,-16 -68,-3 -68,-3 -80,28 -18,46 -27,36 -27,-30 0,-55 10,-75 25,-50 3,6 35,10 71,10 36,0 64,4 64,10 0,6 42,10 105,10 77,0 105,-3 105,-12 0,-23 20,16 20,40 0,12 5,22 10,22 6,0 10,9 10,20 0,28 -29,25 -40,-5 -10,-25 -29,-33 -90,-38 l -35,-2 -3,50 c -2,27 -8,52 -13,56 -6,3 -13,63 -16,132 -6,120 -5,127 13,127 11,0 25,9 32,20 11,19 10,20 -30,18 -24,-1 -64,-3 -90,-5 z"
       inkscape:connector-curvature="0" />
    <path
       id="path3712"
       d="m 5040,783 c 0,-7 11,-19 25,-25 l 25,-11 V 575 403 l -26,-12 c -45,-20 -23,-33 56,-33 79,0 101,13 56,33 l -26,12 v 172 172 l 25,11 c 14,6 25,19 25,27 0,13 -14,15 -80,14 -59,-2 -80,-6 -80,-16 z"
       inkscape:connector-curvature="0" />
  </g>
</svg>
