<?xml version="1.0" standalone="no"?>
<!DOCTYPE svg PUBLIC "-//W3C//DTD SVG 20010904//EN"
 "http://www.w3.org/TR/2001/REC-SVG-20010904/DTD/svg10.dtd">
<svg version="1.0" xmlns="http://www.w3.org/2000/svg"
 width="144.000000pt" height="144.000000pt" viewBox="0 0 144.000000 144.000000"
 preserveAspectRatio="xMidYMid meet">
<metadata>
Created by potrace 1.15, written by Peter Selinger 2001-2017
</metadata>
<g transform="translate(0.000000,144.000000) scale(0.100000,-0.100000)"
fill="#000000" stroke="none">
<path d="M1155 1230 l-120 -120 -45 22 c-33 17 -63 22 -115 22 -89 0 -158 -31
-229 -103 l-49 -50 -34 29 c-38 34 -50 36 -81 14 -51 -35 -39 -52 236 -326
271 -271 286 -283 325 -240 25 27 21 55 -13 87 l-30 28 56 58 c73 77 98 134
98 224 0 53 -5 81 -22 115 l-22 45 120 120 c122 122 139 152 108 183 -31 31
-61 14 -183 -108z"/>
<path d="M377 942 c-25 -27 -21 -55 13 -87 l30 -28 -56 -58 c-73 -77 -98 -134
-98 -224 0 -53 5 -81 22 -115 l22 -45 -120 -120 c-122 -122 -139 -152 -108
-183 31 -31 61 -14 183 108 l120 120 45 -22 c33 -17 63 -22 115 -22 89 0 158
31 229 103 l49 50 34 -29 c38 -34 50 -36 81 -14 51 35 39 52 -236 326 -271
271 -286 283 -325 240z"/>
</g>
</svg>
