<?xml version="1.0" standalone="no"?>
<!DOCTYPE svg PUBLIC "-//W3C//DTD SVG 20010904//EN"
 "http://www.w3.org/TR/2001/REC-SVG-20010904/DTD/svg10.dtd">
<svg version="1.0" xmlns="http://www.w3.org/2000/svg"
 width="144.000000pt" height="144.000000pt" viewBox="0 0 144.000000 144.000000"
 preserveAspectRatio="xMidYMid meet">
<metadata>
Created by potrace 1.15, written by Peter Selinger 2001-2017
</metadata>
<g transform="translate(0.000000,144.000000) scale(0.100000,-0.100000)"
fill="#000000" stroke="none">
<path d="M1279 1295 l-45 -46 -48 22 c-65 28 -167 28 -230 0 -26 -11 -73 -45
-105 -76 -52 -49 -60 -54 -71 -40 -8 9 -27 23 -43 31 -25 14 -31 14 -53 -1
-42 -27 -32 -63 36 -130 l60 -59 -85 -87 c-60 -60 -85 -94 -85 -111 0 -32 18
-48 53 -48 23 0 47 17 114 82 l84 82 57 -57 57 -57 -77 -77 c-41 -43 -80 -87
-86 -99 -16 -31 6 -68 43 -72 26 -2 42 9 114 82 l85 85 62 -59 c42 -40 70 -60
87 -60 53 0 66 63 21 110 l-24 26 51 49 c71 71 101 136 101 223 0 50 -6 84
-21 118 l-22 48 46 46 c46 47 57 84 33 108 -25 25 -62 13 -109 -33z"/>
<path d="M279 784 c-19 -23 -12 -64 17 -94 l24 -26 -51 -49 c-71 -71 -101
-136 -101 -223 0 -50 6 -84 21 -118 l22 -48 -46 -46 c-46 -47 -57 -84 -33
-108 24 -24 61 -13 108 33 l46 46 48 -22 c65 -28 167 -28 230 0 26 11 73 45
105 76 52 49 60 54 71 40 8 -9 27 -23 43 -31 25 -14 31 -14 53 1 55 35 43 51
-234 328 -268 268 -288 282 -323 241z"/>
<path d="M1117 448 c-87 -152 -187 -341 -187 -352 0 -33 26 -36 240 -34 182 3
214 5 223 19 8 12 -15 61 -98 212 -92 169 -111 197 -131 197 -17 0 -30 -12
-47 -42z"/>
</g>
</svg>
